<?xml version="1.0" standalone="no"?>
<!DOCTYPE svg PUBLIC "-//W3C//DTD SVG 1.1//EN" "http://www.w3.org/Graphics/SVG/1.1/DTD/svg11.dtd" >
<svg>
<metadata>
Created by FontForge 20090914 at Tue Feb  7 06:18:52 2017
 By www-data
This font made is of change on the zar font for Poster Design -  All Rights Reserved for Manufacturers Primary zar font.-   Appropriate font for Poster Design - for Obtain reward Hereafter
</metadata>
<defs>
<font id="EntezareZohoor1" horiz-adv-x="0" >
  <font-face 
    font-family="EntezareZohoor 1 **"
    font-weight="700"
    font-stretch="normal"
    units-per-em="2048"
    panose-1="0 0 7 0 0 0 0 0 0 0"
    ascent="1638"
    descent="-410"
    bbox="-341 -1109 3757 2127"
    underline-thickness="100"
    underline-position="-680"
    unicode-range="U+0020-U+FEFC"
  />
<missing-glyph horiz-adv-x="1024" 
d="M163 0v1357h768v-1357h-768zM291 128h512v1101h-512v-1101z" />
    <glyph glyph-name="uE818" unicode="&#x651;&#x64b;" 
d="M508 1613c-5.33301 -38 -18.3359 -71.001 -39.0029 -99.001c-24.667 -33.333 -54.334 -50 -89.001 -50c-32 0 -63.667 15.667 -95 47c-28.667 -64.667 -71 -97 -127 -97c-32 0 -57.667 12.667 -77 38c-18 22.667 -27 50.334 -27 83.001c0 80.667 18 121 54 121
c6.66699 0 16.334 -19.833 29.001 -59.5s24 -59.5 34 -59.5c32 0 58.333 24.833 79 74.5s33.334 74.5 38.001 74.5c8.66699 0 19.834 -17.5 33.501 -52.5s34.834 -52.5 63.501 -52.5c34 0 51 22.667 51 68c0 18 -2.66699 38.333 -8 61l67 35
c16 -32.667 20.333 -76.667 13 -132zM481.997 1950l-14 -95l-394 -131l14 95zM481.997 2127l-14 -95l-394 -131l14 95z" />
    <glyph glyph-name="uFC5E" unicode="&#x651;&#x64c;" arabic-form="isolated" 
d="M513 1548c-5.33301 -38 -18.3359 -71.001 -39.0029 -99.001c-24.667 -33.333 -54.334 -50 -89.001 -50c-32 0 -63.667 16 -95 48c-28.667 -65.333 -71 -98 -127 -98c-32 0 -57.667 12.667 -77 38c-18 22.667 -27 50.334 -27 83.001c0 80.667 18 121 54 121
c6.66699 0 16.334 -19.833 29.001 -59.5s24 -59.5 34 -59.5c32 0 58.333 24.833 79 74.5s33.334 74.5 38.001 74.5c8.66699 0 19.834 -17.333 33.501 -52s34.834 -52 63.501 -52c34 0 51 22.667 51 68c0 17.333 -2.66699 37.333 -8 60l67 35c16 -32 20.333 -76 13 -132z
M495.997 2002c0 -54.667 -19.666 -102.669 -58.999 -144.002c8 -5.33301 25 -12.666 51 -21.999l-27 -89c-38.667 9.33301 -71.667 25.333 -99 48c-82.667 -67.333 -164 -106.333 -244 -117c-34 4 -52 21.333 -54 52c15.333 4.66699 44.333 15.334 87 32.001
c5.33301 19.333 6.33301 39 3 59c-4 22.667 -13 34 -27 34c-6 0 -15.333 -7.16699 -28 -21.5s-22.334 -21.5 -29.001 -21.5c-20.667 0 -20.334 22.333 0.999023 67c18 38.667 42.333 58 73 58c47.333 0 71 -34 71 -102c0 -15.333 -1.33301 -32 -4 -50
c33.333 16.667 63.333 35.667 90 57c-25.333 26 -38 55.333 -38 88c0 31.333 22 68 66 110c36.667 35.333 67.334 53 92.001 53c50 0 75 -30.333 75 -91zM394.998 2010c-12 0 -25.334 -5.83301 -40.001 -17.5s-22 -23.5 -22 -35.5c0 -9.33301 5.83301 -21.5 17.5 -36.5
s21.834 -22.5 30.501 -22.5c12 0 23.333 10.667 34 32c10 18.667 15 34.667 15 48c0 21.333 -11.667 32 -35 32z" />
    <glyph glyph-name="uFC5F" unicode="&#x651;&#x64d;" arabic-form="isolated" 
d="M524 1969c-5.33301 -40 -19.002 -74.667 -41.002 -104c-25.333 -35.333 -56.666 -53 -93.999 -53c-33.333 0 -66.333 17 -99 51c-30 -68.667 -74.667 -103 -134 -103c-33.333 0 -59.833 12.667 -79.5 38s-29.5 55 -29.5 89c0 84.667 19 127 57 127
c6.66699 0 16.667 -20.833 30 -62.5s25.333 -62.5 36 -62.5c34 0 61.833 26 83.5 78s34.834 78 39.501 78c9.33301 0 21 -18.167 35 -54.5s36.333 -54.5 67 -54.5c35.333 0 53 24 53 72c0 18 -2.66699 39 -8 63l70 36c17.333 -33.333 22 -79.333 14 -138zM505.998 1570
l-15 -100l-412 -137l14 100zM505.998 1756l-15 -100l-412 -138l14 99z" />
    <glyph glyph-name="uFC60" unicode="&#x651;&#x64e;" arabic-form="isolated" 
d="M536 1598c-5.33301 -38 -18.3359 -71.001 -39.0029 -99.001c-24.667 -33.333 -54.334 -50 -89.001 -50c-32 0 -63.667 16 -95 48c-28.667 -65.333 -71 -98 -127 -98c-32 0 -57.667 12.667 -77 38c-18 22.667 -27 50.334 -27 83.001c0 80.667 18 121 54 121
c6.66699 0 16.334 -19.833 29.001 -59.5s24 -59.5 34 -59.5c32 0 58.333 24.833 79 74.5s33.334 74.5 38.001 74.5c8.66699 0 19.834 -17.333 33.501 -52s34.834 -52 63.501 -52c34 0 51 22.667 51 68c0 17.333 -2.66699 37.333 -8 60l67 35c16 -32 20.333 -76 13 -132z
M503.997 1980l-14 -95l-393 -131l14 95z" />
    <glyph glyph-name="uFC61" unicode="&#x651;&#x64f;" arabic-form="isolated" 
d="M496 1505c-5.33301 -38 -18.3359 -71.001 -39.0029 -99.001c-24.667 -33.333 -54.334 -50 -89.001 -50c-32 0 -63.667 15.667 -95 47c-28.667 -64.667 -71 -97 -127 -97c-32 0 -57.667 12.667 -77 38c-18 22.667 -27 50.334 -27 83.001c0 80.667 18 121 54 121
c6.66699 0 16.334 -19.833 29.001 -59.5s24 -59.5 34 -59.5c32 0 58.333 24.833 79 74.5s33.334 74.5 38.001 74.5c8.66699 0 19.834 -17.5 33.501 -52.5s34.834 -52.5 63.501 -52.5c34 0 51 22.667 51 68c0 18 -2.66699 38.333 -8 61l67 35
c16 -32.667 20.333 -76.667 13 -132zM458.997 1948c0 -54.667 -19.667 -102.334 -59 -143.001c8 -6 25 -13.667 51 -23l-27 -88c-38.667 9.33301 -71.667 25 -99 47c-82.667 -66.667 -164 -105.667 -244 -117c-34 4.66699 -52 22 -54 52
c109.333 36.667 188.333 74.334 237 113.001c-25.333 25.333 -38 54.333 -38 87c0 30 18.833 64.667 56.5 104s71.5 59 101.5 59c50 0 75 -30.333 75 -91zM378.997 1952c-7.33301 2.66699 -14.332 4 -20.999 4c-12.667 0 -26.167 -5.66699 -40.5 -17
s-21.5 -23.333 -21.5 -36c0 -10 5.66699 -22.167 17 -36.5s21.666 -21.5 30.999 -21.5c12 0 23.333 10.667 34 32c9.33301 18 14 34 14 48c0 13.333 -4.33301 22.333 -13 27z" />
    <glyph glyph-name="uFC62" unicode="&#x651;&#x650;" arabic-form="isolated" 
d="M531 1868c-5.33301 -40 -18.668 -74.668 -40.001 -104.001c-26 -34.667 -57.333 -52 -94 -52c-34 0 -67.333 16.667 -100 50c-30 -68.667 -74.333 -103 -133 -103c-33.333 0 -60.333 13.333 -81 40c-18.667 24 -28 53 -28 87c0 84.667 18.667 127 56 127
c6.66699 0 16.834 -20.833 30.501 -62.5s25.5 -62.5 35.5 -62.5c34 0 61.833 26.167 83.5 78.5s34.834 78.5 39.501 78.5c9.33301 0 21.166 -18.333 35.499 -55s36.5 -55 66.5 -55c36 0 54 24 54 72c0 18 -3 39 -9 63l71 37c16.667 -33.333 21 -79.666 13 -138.999z
M512.998 1672l-14 -100l-413 -138l15 99z" />
    <glyph glyph-name="uFDF2" unicode="&#xfedf;&#xfee0;&#xfeea;" horiz-adv-x="1595" arabic-form="isolated" 
d="M996 1326c0 -24 -3.66699 -51 -11 -81c-10 -40.667 -22.667 -61 -38 -61c-12.667 0 -20.667 13 -24 39c-6.66699 48.667 -11 76.667 -13 84c-4.66699 16 -13.667 38.667 -27 68c-9.33301 20.667 -14 38.334 -14 53.001c0 15.333 15.333 28 46 38c24 8 45.333 12 64 12
c11.333 -36.667 17 -87.334 17 -152.001zM1162 1054c0 -37.333 -12.002 -71.001 -36.002 -101.001c-25.333 -32 -56.333 -48 -93 -48s-72 20.333 -106 61c-32 -46 -70 -69 -114 -69c-31.333 0 -57.666 16 -78.999 48c-20 28.667 -30 59.334 -30 92.001
c0 73.333 18.333 110 55 110c4.66699 0 14.167 -19.5 28.5 -58.5s26.833 -58.5 37.5 -58.5c32 0 58.5 18.5 79.5 55.5s34.167 55.5 39.5 55.5c8.66699 0 18.334 -19.5 29.001 -58.5s30 -58.5 58 -58.5c38.667 0 58 22.333 58 67c0 13.333 -2 29 -6 47l60 31
c12.667 -24 19 -62.333 19 -115zM1634 348.999c0 -142 -39.998 -242.668 -119.998 -302.001c-52 -38.667 -117 -58 -195 -58c-110.667 0 -211 70.667 -301 212c-41.333 -134 -137.333 -201 -288 -201c-140 0 -234.333 90 -283 270c-25.333 -26 -59 -55.333 -101 -88
c-16.667 -6 -38.334 -9 -65.001 -9c-64 0 -124 14.333 -180 43c-65.333 33.333 -98 75 -98 125c0 62 33.333 118 100 168c38.667 29.333 126.667 77.333 264 144l-12 85l138 98c21.333 15.333 35.666 23 42.999 23c10.667 0 18 -15 22 -45l32 -244
c24.667 -178 88 -267 190 -267c92.667 0 139 45 139 135c0 38.667 -20.333 140.334 -61 305.001c-6.66699 27.333 38.333 73 135 137c22 14.667 35 12 39 -8c37.333 -182.667 79.333 -330.667 126 -444c35.333 -86.667 90.333 -130 165 -130c86.667 0 130 44 130 132
c0 56 -33.667 198.333 -101 427l139 148c6.66699 7.33301 12.667 11 18 11c6.66699 0 12.667 -8.33301 18 -25c71.333 -236 107 -450 107 -642zM426 345.998l-36 210.998c-59.333 -18.667 -111.666 -43.667 -156.999 -75c-36.667 -25.333 -55 -42.666 -55 -51.999
c0 -17.333 20.333 -34.666 61 -51.999c49.333 -21.333 111.666 -32 186.999 -32z" />
    <glyph glyph-name="uFEF5" unicode="&#xfedf;&#xfe82;" horiz-adv-x="809" arabic-form="isolated" 
d="M885 1080c10.667 -13.333 16.001 -23.667 16.001 -31c0 -14 -31.333 -22.667 -94 -26c1.33301 -21.333 2 -41.333 2 -60c0 -210.667 -74.333 -383.667 -223 -519c34 -47.333 51 -108.666 51 -183.999c0 -120 -59.667 -202.333 -179 -247
c-75.333 -28 -185.333 -42 -330 -42c-52.667 0 -79 15.333 -79 46c0 7.33301 1.33301 16 4 26c9.33301 33.333 36.666 114.333 81.999 243c34.667 8 85.667 28.667 153 62c72 35.333 122 66.666 150 93.999c-120 178 -243.333 322.667 -370 434c-26.667 -52 -47 -78 -61 -78
c-18 -2 -71 71 -159 219c18.667 62 42.667 123.667 72 185c22.667 47.333 41 71 55 71c10 0 24.333 -9 43 -27c244.667 -233.333 419 -463 523 -689c56 74 81 174 75 300c-4 83.333 -24 168.333 -60 255l100 152c16 24.667 29.667 37 41 37c10 0 23 -10.333 39 -31z
M530.001 273.999c0 20 -14.333 49.666 -43 88.999c-36 -27.333 -120 -75.666 -252 -144.999c18.667 -2 40 -3 64 -3c154 0 231 19.667 231 59zM527.001 1512c-45.333 -46.667 -116.001 -86.666 -212.001 -119.999c-89.333 -31.333 -170 -47 -242 -47
c-26 0 -64.5 4.33301 -115.5 13s-89.5 13 -115.5 13c-14 0 -30.833 -7.33301 -50.5 -22s-34.5 -22 -44.5 -22c-14 0 -21 8.33301 -21 25c0 25.333 13 62 39 110c32.667 60 81.334 90 146.001 90c26 0 66.167 -6.16699 120.5 -18.5s95.166 -18.5 122.499 -18.5
c132.667 0 251.334 11.667 356.001 35c21.333 4.66699 32 0.666992 32 -12c0 -6.66699 -5 -15.334 -15 -26.001z" />
    <glyph glyph-name="uFEF6" unicode="&#xfee0;&#xfe82;" horiz-adv-x="984" arabic-form="final" 
d="M1012 1l-84.0039 0.00390625c-136 0 -204.667 140.333 -206 421c0 -10.667 0.333008 6.33301 1 51c0 51.333 0.333008 120.333 1 207c0 12.667 -0.333008 29.667 -1 51c-42 -130.667 -89.333 -258.667 -142 -384c-69.333 -166 -125 -268.333 -167 -307
c-34 -31.333 -107.333 -52.333 -220 -63c-70 -6.66699 -126.333 -10 -169 -10c-88 0 -132 11.667 -132 35c0 19.333 24 39.666 72 60.999c38 16.667 112.667 54.667 224 114c142 75.333 215.333 134.666 220 177.999c3.33301 27.333 -8.66699 68.666 -36 123.999
c-46 93.333 -119.667 179.666 -221 258.999c-58 45.333 -154.667 107 -290 185c-14.667 8.66699 -21 23 -19 43l24 237c2.66699 23.333 8.33398 35 17.001 35c6 0 17 -5.66699 33 -17c80 -56 181.667 -99.667 305 -131c38 -9.33301 57 -20.666 57 -33.999
c0 -16.667 -33 -39.667 -99 -69c80.667 -65.333 149.334 -150.5 206.001 -255.5s90.334 -209.167 101.001 -312.5c121.333 177.333 203.333 455.666 246 834.999c4.66699 44 20.334 66 47.001 66c24.667 0 37.667 -20.667 39 -62l24 -653c4 -111.333 12 -184.333 24 -219
c18 -53.333 57 -80 117 -80h28v-305zM516.996 1478c-46 -46.667 -116.666 -86.667 -211.999 -120c-89.333 -30.667 -170 -46 -242 -46c-26 0 -64.5 4.33301 -115.5 13s-89.5 13 -115.5 13c-13.333 0 -29.833 -7.5 -49.5 -22.5s-34.834 -22.5 -45.501 -22.5
c-13.333 0 -20 8.66699 -20 26c0 25.333 13 62 39 110c32 59.333 80.333 89 145 89c25.333 0 65.333 -6.16699 120 -18.5s96 -18.5 124 -18.5c132 0 250.667 11.667 356 35c21.333 4.66699 32 1 32 -11c0 -7.33301 -5.33301 -16.333 -16 -27z" />
    <glyph glyph-name="uFEF7" unicode="&#xfedf;&#xfe84;" horiz-adv-x="828" arabic-form="isolated" 
d="M905 1080c10.667 -13.333 16 -23.668 16 -31.001c0 -14 -31.667 -22.667 -95 -26c1.33301 -21.333 2 -41.333 2 -60c0 -211.333 -74 -384.333 -222 -519c33.333 -47.333 50 -108.666 50 -183.999c0 -119.333 -59.333 -201.333 -178 -246c-76 -28.667 -186 -43 -330 -43
c-53.333 0 -80 15.333 -80 46c0 8.66699 1.33301 17.334 4 26.001c8 26 35.333 107 82 243c36 8 87.333 28.667 154 62c71.333 35.333 121.333 66.666 150 93.999c-124 180 -247.667 324.667 -371 434c-26.667 -52 -46.667 -78 -60 -78c-18.667 -2 -72 71 -160 219
c20.667 65.333 44.667 127 72 185c22.667 47.333 41 71 55 71c10 0 24.333 -9 43 -27c244.667 -233.333 419 -463 523 -689c56 73.333 81 173.333 75 300c-4 85.333 -24 170.333 -60 255l100 152c16 24.667 29.667 37 41 37c10.667 0 24 -10.333 40 -31zM549 273.998
c0 20 -14.333 49.666 -43 88.999c-36 -27.333 -120 -75.666 -252 -144.999c18.667 -2 40 -3 64 -3c154 0 231 19.667 231 59zM198 1513l-44.001 -74.999c-133.333 -45.333 -241.333 -98 -324 -158c-12.667 32 -15 53 -7 63c12.667 15.333 45.334 41.666 98.001 78.999
c-56 32 -84 66.333 -84 103c0 37.333 21.833 77.333 65.5 120s84.5 64 122.5 64c39.333 0 70.333 -15.333 93 -46c13.333 -18 20 -31.333 20 -40c0 -9.33301 -8.66699 -14 -26 -14c-9.33301 0 -22.833 1.16699 -40.5 3.5s-31.167 3.5 -40.5 3.5
c-67.333 0 -101 -14.333 -101 -43c0 -10.667 12.333 -25.667 37 -45c22.667 -17.333 40.667 -28.333 54 -33l146 47c6.66699 2 14 3 22 3c10.667 0 16 -4 16 -12c0 -5.33301 -2.33301 -12 -7 -20z" />
    <glyph glyph-name="uFEF8" unicode="&#xfee0;&#xfe84;" horiz-adv-x="998" arabic-form="final" 
d="M1026 1l-84 -0.000976562c-136 0 -204.667 140.333 -206 421c0 36.667 0.333008 79.667 1 129l2 129c0 6.66699 -0.666992 23.667 -2 51c-42 -132 -89 -260 -141 -384c-69.333 -165.333 -125.333 -267.666 -168 -306.999c-34 -31.333 -107.333 -52.333 -220 -63
c-70 -6.66699 -126.333 -10 -169 -10c-88 0 -132 11.667 -132 35c0 18.667 24.333 39 73 61c35.333 16 109.666 54 222.999 114c142 75.333 215.667 134.666 221 177.999c3.33301 26 -9 67.333 -37 124c-46 93.333 -119.667 179.666 -221 258.999
c-58.667 46 -155.334 107.667 -290.001 185c-14.667 8.66699 -21 23 -19 43c7.33301 76.667 15.333 155.667 24 237c2.66699 23.333 8.33398 35 17.001 35c6 0 17 -5.66699 33 -17c80 -56 182 -99.667 306 -131c38 -9.33301 57 -20.666 57 -33.999
c0 -16.667 -33 -39.667 -99 -69c80.667 -64.667 149.167 -149.667 205.5 -255s89.833 -209.666 100.5 -312.999c122 178.667 204.333 457 247 835c4.66699 44 20.334 66 47.001 66c24 0 36.667 -20.667 38 -62l25 -653c4 -112 12 -185 24 -219
c18 -53.333 56.667 -80 116 -80h28v-305zM167 1513l-44.001 -74.999c-133.333 -45.333 -241.333 -98 -324 -158c-12.667 32 -15 53 -7 63c12.667 15.333 45.334 41.666 98.001 78.999c-56 32 -84 66.333 -84 103c0 37.333 21.833 77.333 65.5 120s84.5 64 122.5 64
c39.333 0 70.333 -15.333 93 -46c13.333 -18 20 -31.333 20 -40c0 -9.33301 -8.66699 -14 -26 -14c-9.33301 0 -22.833 1.16699 -40.5 3.5s-31.167 3.5 -40.5 3.5c-67.333 0 -101 -14.333 -101 -43c0 -10.667 12.333 -25.667 37 -45c22.667 -17.333 40.667 -28.333 54 -33
l146 47c6.66699 2 14 3 22 3c10.667 0 16 -4 16 -12c0 -5.33301 -2.33301 -12 -7 -20z" />
    <glyph glyph-name="uFEF9" unicode="&#xfedf;&#xfe88;" horiz-adv-x="809" arabic-form="isolated" 
d="M886 1080c10.667 -13.333 16 -23.668 16 -31.001c0 -14 -31.667 -22.667 -95 -26c1.33301 -21.333 2 -41.333 2 -60c0 -211.333 -74 -384.333 -222 -519c33.333 -47.333 50 -108.666 50 -183.999c0 -119.333 -59.333 -201.333 -178 -246c-76 -28.667 -186 -43 -330 -43
c-53.333 0 -80 15.333 -80 46c0 8.66699 1.33301 17.334 4 26.001c8 26 35.333 107 82 243c36 8 87.333 28.667 154 62c71.333 35.333 121.333 66.666 150 93.999c-124 180 -247.667 324.667 -371 434c-26.667 -52 -46.667 -78 -60 -78c-18.667 -2 -72 71 -160 219
c20.667 65.333 44.667 127 72 185c22.667 47.333 41 71 55 71c10 0 24.333 -9 43 -27c244.667 -233.333 419 -463 523 -689c56 73.333 81 173.333 75 300c-4 85.333 -24 170.333 -60 255l100 152c16 24.667 29.667 37 41 37c10.667 0 24 -10.333 40 -31zM530 273.998
c0 20 -14.333 49.666 -43 88.999c-36 -27.333 -120 -75.666 -252 -144.999c18.667 -2 40 -3 64 -3c154 0 231 19.667 231 59zM324 -364.003l-44.001 -74c-133.333 -46 -241.333 -99 -324 -159c-12.667 32.667 -15 54 -7 64c12 14.667 45 41 99 79c-56.667 32 -85 66 -85 102
c0 37.333 21.833 77.333 65.5 120s84.5 64 122.5 64c38.667 0 69.667 -15.333 93 -46c13.333 -18 20 -31.333 20 -40c0 -9.33301 -8.33301 -14 -25 -14c-8.66699 0 -22.167 1.16699 -40.5 3.5s-32.166 3.5 -41.499 3.5c-67.333 0 -101 -14 -101 -42
c0 -12 12.333 -27.333 37 -46c20.667 -16 38.667 -27 54 -33l146 47c6.66699 2 14 3 22 3c10.667 0 16 -4 16 -12c0 -5.33301 -2.33301 -12 -7 -20z" />
    <glyph glyph-name="uFEFA" unicode="&#xfee0;&#xfe88;" horiz-adv-x="968" arabic-form="final" 
d="M996 1l-84 -0.000976562c-136 0 -204.667 140.333 -206 421c0 36.667 0.333008 79.667 1 129l2 129c0 6.66699 -0.666992 23.667 -2 51c-42 -132 -89 -260 -141 -384c-69.333 -165.333 -125.333 -267.666 -168 -306.999c-34 -31.333 -107.333 -52.333 -220 -63
c-70 -6.66699 -126.333 -10 -169 -10c-88 0 -132 11.667 -132 35c0 18.667 24.333 39 73 61c35.333 16 109.666 54 222.999 114c142 75.333 215.667 134.666 221 177.999c3.33301 26 -9 67.333 -37 124c-46 93.333 -119.667 179.666 -221 258.999
c-58.667 46 -155.334 107.667 -290.001 185c-14.667 8.66699 -21 23 -19 43c7.33301 76.667 15.333 155.667 24 237c2.66699 23.333 8.33398 35 17.001 35c6 0 17 -5.66699 33 -17c80 -56 182 -99.667 306 -131c38 -9.33301 57 -20.666 57 -33.999
c0 -16.667 -33 -39.667 -99 -69c80.667 -64.667 149.167 -149.667 205.5 -255s89.833 -209.666 100.5 -312.999c122 178.667 204.333 457 247 835c4.66699 44 20.334 66 47.001 66c24 0 36.667 -20.667 38 -62l25 -653c4 -112 12 -185 24 -219
c18 -53.333 56.667 -80 116 -80h28v-305zM237 -386.001l-42.999 -74.999c-134 -45.333 -242 -98 -324 -158c-12.667 32.667 -15.334 53.667 -8.00098 63c12 15.333 45 41.666 99 78.999c-56.667 32 -85 66.333 -85 103c0 37.333 22 77.333 66 120s84.667 64 122 64
c39.333 0 70.333 -15.333 93 -46c13.333 -18 20 -31.333 20 -40c0 -9.33301 -8.33301 -14 -25 -14c-9.33301 0 -23 1.16699 -41 3.5s-31.667 3.5 -41 3.5c-67.333 0 -101 -14.333 -101 -43c0 -10.667 12.333 -25.667 37 -45c22.667 -17.333 40.667 -28.333 54 -33
c51.333 17.333 100.333 33 147 47c6.66699 2 13.667 3 21 3c11.333 0 17 -4 17 -12c0 -4 -2.66699 -10.667 -8 -20z" />
    <glyph glyph-name="uFEFB" unicode="&#xfedf;&#xfe8e;" horiz-adv-x="785" arabic-form="isolated" 
d="M855 1080c10.667 -13.333 16 -23.668 16 -31.001c0 -14 -31.667 -22.667 -95 -26c1.33301 -21.333 2 -41.333 2 -60c0 -211.333 -74 -384.333 -222 -519c33.333 -47.333 50 -108.666 50 -183.999c0 -119.333 -59.333 -201.333 -178 -246c-76 -28.667 -186 -43 -330 -43
c-53.333 0 -80 15.333 -80 46c0 8.66699 1.33301 17.334 4 26.001c8 26 35.333 107 82 243c36 8 87.333 28.667 154 62c71.333 35.333 121.333 66.666 150 93.999c-124 180 -247.667 324.667 -371 434c-26.667 -52 -46.667 -78 -60 -78c-18.667 -2 -72 71 -160 219
c20.667 65.333 44.667 127 72 185c22.667 47.333 41 71 55 71c10 0 24.333 -9 43 -27c244.667 -233.333 419 -463 523 -689c56 73.333 81 173.333 75 300c-4 85.333 -24 170.333 -60 255l100 152c16 24.667 29.667 37 41 37c10.667 0 24 -10.333 40 -31zM499 273.998
c0 20 -14.333 49.666 -43 88.999c-36 -27.333 -120 -75.666 -252 -144.999c18.667 -2 40 -3 64 -3c154 0 231 19.667 231 59z" />
    <glyph glyph-name="uFEFC" unicode="&#xfee0;&#xfe8e;" horiz-adv-x="950" arabic-form="final" 
d="M843 1c-136 0 -204.667 140.332 -206 420.999c0 36.667 0.333008 79.667 1 129l2 129c0 6.66699 -0.666992 23.667 -2 51c-42 -132 -89 -260 -141 -384c-69.333 -165.333 -125.333 -267.666 -168 -306.999c-34 -31.333 -107.333 -52.333 -220 -63
c-70 -6.66699 -126.333 -10 -169 -10c-88 0 -132 11.667 -132 35c0 18.667 24.333 39 73 61c35.333 16 109.666 54 222.999 114c142 75.333 215.667 134.666 221 177.999c3.33301 26 -9 67.333 -37 124c-46 93.333 -119.667 179.666 -221 258.999
c-58.667 46 -155.334 107.667 -290.001 185c-14.667 8.66699 -21 23 -19 43c7.33301 76.667 15.333 155.667 24 237c2.66699 23.333 8.33398 35 17.001 35c6 0 17 -5.66699 33 -17c80 -56 182 -99.667 306 -131c38 -9.33301 57 -20.666 57 -33.999
c0 -16.667 -33 -39.667 -99 -69c80.667 -64.667 149.167 -149.667 205.5 -255s89.833 -209.666 100.5 -312.999c122 178.667 204.333 457 247 835c4.66699 44 20.334 66 47.001 66c24 0 36.667 -20.667 38 -62l25 -653c4 -112 12 -185 24 -219
c18 -53.333 56.667 -80 116 -80l1 -305h-57zM1013 305.999v-305h-139l-5 305h144z" />
    <glyph glyph-name="u0652_u064E.liga" unicode="&#x652;&#x64e;" horiz-adv-x="1" 
d="M307 1330l-39.001 -327c-2 -16 -8.33301 -24 -19 -24s-17.667 10 -21 30l-46 274l109 55c4.66699 2.66699 8.33398 4 11.001 4c4 0 5.66699 -4 5 -12z" />
    <glyph glyph-name="u0652_u064B.liga" unicode="&#x652;&#x64b;" horiz-adv-x="1" 
d="M692 1169c8 -7.33301 7.66699 -15.332 -1 -23.999l-116 -116c-4.66699 -4.66699 -9 -7 -13 -7s-8.33301 2.33301 -13 7l-112 112l-112 -112c-8 -8 -16.333 -8 -25 0l-118 114c-10 9.33301 -9.33301 19.666 2 30.999l108 110c10 10 20 10 30 0l110 -110l110 110
c10 10 20 10 30 0z" />
    <glyph glyph-name="u0652_u064D.liga" unicode="&#x652;&#x64d;" horiz-adv-x="1" 
d="M1100 -775c8 -7.33301 7.66699 -15.332 -1 -23.999l-116 -116c-4.66699 -4.66699 -9 -7 -13 -7s-8.33301 2.33301 -13 7l-112 112l-112 -112c-8 -8 -16.333 -8 -25 0l-118 114c-10 9.33301 -9.33301 19.666 2 30.999l108 110c10 10 20 10 30 0l110 -110l110 110
c10 10 20 10 30 0z" />
    <glyph glyph-name="u0622" unicode="&#x622;" horiz-adv-x="223" arabic-form="isolated" 
d="M249 1243l-95.999 -1163c-4.66699 -57.333 -20.334 -86 -47.001 -86c-26 0 -43.333 36.333 -52 109l-114 973l269 196c12 8.66699 21.333 13 28 13c10 0 14 -14 12 -42zM512.001 1478c-45.333 -46.667 -116 -86.668 -212 -120.001c-90 -30.667 -170.667 -46 -242 -46
c-26 0 -64.5 4.33301 -115.5 13s-89.5 13 -115.5 13c-14 0 -30.667 -7.5 -50 -22.5s-34.333 -22.5 -45 -22.5c-14 0 -21 8.66699 -21 26c0 24.667 13.333 61.334 40 110.001c32.667 59.333 81 89 145 89c25.333 0 65.333 -6.16699 120 -18.5s96 -18.5 124 -18.5
c132 0 250.333 11.667 355 35c21.333 4.66699 32 1 32 -11c0 -8 -5 -17 -15 -27z" />
    <glyph glyph-name="u0623" unicode="&#x623;" horiz-adv-x="2172" arabic-form="isolated" 
d="M419 599c22 23.333 30.666 53.3311 25.999 89.998c-17.333 26.667 -46.666 41 -87.999 43c6.66699 23.333 10 50 10 80c0 30.667 -4.66699 74.167 -14 130.5s-14 98.833 -14 127.5c6 -7.33301 17 -18.333 33 -33c3.33301 -3.33301 8 -3.33301 14 0
c1.33301 2.66699 2 7.33398 2 14.001c-7.33301 18.667 -21.333 47.667 -42 87c-4.66699 14.667 -16 30 -34 46c-15.333 -28.667 -23.666 -54.667 -24.999 -78l7 -8c13.333 -74 29 -187.333 47 -340c-4.66699 -11.333 -23.667 -21 -57 -29c-16 0 -26.667 -7.16699 -32 -21.5
l-15 -41.5l2 -3c20 8 63.333 9 130 3c11.333 -3.33301 24.666 -11.666 39.999 -24.999c-102 -70.667 -203 -100.667 -303 -90c-30 3.33301 -52.667 23.333 -68 60c-6 15.333 -9 32.666 -9 51.999c0 46 20.333 90.667 61 134c4.66699 10 3.33398 15 -3.99902 15
c-14.667 -10 -30 -25.667 -46 -47c-26.667 -50.667 -40 -98 -40 -142c0 -32 7 -59.667 21 -83c22 -39.333 74.333 -57.666 157 -54.999c77.333 24 119.666 37.667 126.999 41c48 18.667 86 43 114 73zM842.999 136.998c34.667 19.333 50.333 60.9961 47 124.996
c-10.667 25.333 -17.667 41.333 -21 48c-11.333 17.333 -24.666 27.666 -39.999 30.999l-12 -57c24.667 -17.333 41.334 -41.333 50.001 -72c-38.667 -37.333 -96.334 -52.666 -173.001 -45.999c12 61.333 17.333 96 16 104c-9.33301 30 -31.333 49 -66 57
c-16.667 -3.33301 -35.667 -16 -57 -38c-22 -36.667 -33 -70 -33 -100c0 -17.333 3.66699 -32.333 11 -45c-67.333 -32.667 -127 -50.667 -179 -54c-118.667 -8 -194.667 10 -228 54c-10.667 14.667 -16 31.334 -16 50.001c0 20.667 9.33301 52.334 28 95.001
c2 6 6.5 15.833 13.5 29.5s10.5 24.834 10.5 33.501c-2.66699 8.66699 -5.66699 12.334 -9 11.001c-4.66699 -4 -7 -10.667 -7 -20c-5.33301 -10.667 -14.333 -16 -27 -16c-7.33301 -3.33301 -11.666 0.666992 -12.999 12c6 25.333 12.667 63.666 20 114.999
c-2.66699 1.33301 -6 -1 -10 -7s-10.667 -26.333 -20 -61c-6.66699 -24 -9.33398 -44.333 -8.00098 -61c0 -10 11.333 -19 34 -27c-15.333 -34.667 -27.333 -84.334 -36 -149.001c13.333 -63.333 38.666 -98.666 75.999 -105.999c39.333 -12.667 79.333 -19 120 -19
c84 0 187.667 29 311 87c83.333 -15.333 156 -6.66602 218 26.001zM582.998 215.994c2.66699 15.333 17.667 30 45 44c22.667 1.33301 42.334 -12.667 59.001 -42c-2 -5.33301 -18.667 -18 -50 -38c-16 3.33301 -26.333 6.33301 -31 9
c-12.667 6.66699 -20.334 15.667 -23.001 27zM1907 243.994c-12 -48.667 -17.998 -72.333 -17.998 -71c0 -36 20 -54 60 -54c8 0 23.667 2.66699 47 8s41.666 6.33301 54.999 3c16.667 0 26.667 -8 30 -24c4.66699 -2.66699 7 -6.33398 7 -11.001s-8.66699 -14.5 -26 -29.5
s-76.333 -44.5 -177 -88.5c-74 -31.333 -130.667 -68.666 -170 -111.999l-55 -73c-22 -28.667 -47.333 -43.667 -76 -45c-20.667 4.66699 -34.334 13.667 -41.001 27c-12 39.333 -8.66699 76.333 10 111c139.333 74 249 129.667 329 167
c9.33301 4.66699 15.833 13.334 19.5 26.001s6.16699 24.334 7.5 35.001c0 2.66699 -5 7.66699 -15 15c-44 -1.33301 -99.333 1.66699 -166 9c-13.333 2 -41 7.66699 -83 17c-32.667 6 -59.334 9 -80.001 9c-25.333 0 -48.333 -4.66699 -69 -14c-36 -33.333 -55 -65 -57 -95
c-1.33301 -21.333 10 -59.666 34 -114.999h-5c-30 6 -63.667 38.333 -101 97c-21.333 6 -53 -13 -95 -57c-3.33301 -8 -10 -20.667 -20 -38c-18.667 -39.333 -29.334 -85 -32.001 -137c-6 -18.667 -13.167 -38 -21.5 -58s-22.833 -31.667 -43.5 -35
c-16.667 2 -29.667 9.33301 -39 22c-30 41.333 -43.667 91 -41 149l45 12c23.333 6 40.666 22.667 51.999 50c2 6 6.66699 31 14 75c-2.66699 48.667 -15.334 110 -38.001 184c-24.667 90.667 -40.334 151.667 -47.001 183l4 2l126 -81c50 -32.667 81.667 -69.667 95 -111
c4.66699 -10.667 7 -21.667 7 -33c0 -23.333 -9 -48.833 -27 -76.5l-54 -79.5l2 -3c12 3.33301 23 13.333 33 30s17.667 27.667 23 33c34.667 58 52 107.667 52 149c0 28 -9 52.333 -27 73c-20.667 28.667 -61.167 61.5 -121.5 98.5s-101.166 71.833 -122.499 104.5
c-2.66699 2 -4.5 7 -5.5 15s-3.5 12 -7.5 12c-8 -16 -18.667 -40.667 -32 -74l5 -5c10 -56.667 28 -133.334 54 -230.001c30 -104 50 -178.667 60 -224c-8 -10.667 -26 -23.334 -54 -38.001c-20.667 -4.66699 -39 0 -55 14c3.33301 7.33301 2.33301 17 -3 29
c-10.667 -4.66699 -20.5 -17.167 -29.5 -37.5s-20.167 -34.166 -33.5 -41.499c-25.333 -6 -46.666 -1.66699 -63.999 13c0 4.66699 0.833008 12 2.5 22s2.5 16.667 2.5 20l-10 3c-12.667 -20.667 -37.334 -46 -74.001 -76c-30 -12.667 -55 -6.66699 -75 18
c-17.333 7.33301 -35.333 11 -54 11c-48 0 -101.333 -25.333 -160 -76c-2.66699 -3.33301 -31.334 -35 -86.001 -95c-37.333 -38 -71.666 -62.333 -102.999 -73c-18.667 -5.33301 -34 2.33398 -46 23.001c-8.66699 14.667 -13 29.667 -13 45c0 16 5 36.333 15 61
c12 33.333 19 54.333 21 63c0 1.33301 -1.66699 2.66602 -5 3.99902c-10.667 -17.333 -24 -44 -40 -80c-9.33301 -36.667 -14 -66 -14 -88c0 -32 8.66699 -57 26 -75s42.333 -20.333 75 -7c28.667 16.667 71.334 56 128.001 118c50.667 55.333 95.667 90.666 135 105.999
c61.333 17.333 103.333 11 126 -19c9.33301 -1.33301 18.666 -2 27.999 -2c37.333 0 68 17.333 92 52c14.667 -19.333 41 -29 79 -29c25.333 9.33301 44 29 56 59c11.333 -4.66699 21 -12.334 29 -23.001l10 -126c16.667 -44 25.667 -68.333 27 -73
c16.667 -26.667 38.334 -41 65.001 -43c18.667 2 33.334 13.333 44.001 34l24 57c3.33301 69.333 24 135.333 62 198l23 16.5c12.667 9 22.334 13.5 29.001 13.5c4.66699 0 8.66699 -0.666992 12 -2c17.333 -45.333 51.333 -75 102 -89c17.333 1.33301 41 1.33301 71 0
c-18 -44.667 -22 -92 -12 -142c14 -31.333 42 -45.666 84 -42.999c21.333 8 54 42.667 98 104c36.667 50 94.334 91.667 173.001 125c105.333 46 170.333 77.667 195 95s38.667 63 42 137c-19.333 84 -63 134.333 -131 151c-36 -4.66699 -60 -23.334 -72 -56.001z
M1466 46.9951c-1.33301 27.333 9.33301 44 32 50c16.667 3.33301 33.334 5 50.001 5c28.667 0 69 -5.5 121 -16.5s90 -17.167 114 -18.5c-52 -32 -135 -74 -249 -126c-18.667 22.667 -41.334 58 -68.001 106zM2027 198.995c-6 -2 -17.001 -5.33301 -33.001 -10
s-27.667 -7 -35 -7c-14.667 0 -26.667 6.33301 -36 19c0 6 11 16.333 33 31c4.66699 1.33301 9.33398 2 14.001 2c8 0 27 -11.667 57 -35zM1676 880.995c-2.66699 -38 22.9971 -76.0039 76.9971 -114.004l-72 -29c-25.333 -12 -51.333 -25.167 -78 -39.5
s-41.334 -34.166 -44.001 -59.499c15.333 0 94.666 -11 237.999 -33l5 -5c-180 -53.333 -311 -80 -393 -80c-55.333 0 -107.666 7.66699 -156.999 23c-68 22.667 -107.333 89 -118 199c-9.33301 -1.33301 -22.666 0.333984 -39.999 5.00098l7 -59
c-9.33301 -60 -74.333 -121 -195 -183c-39.333 -10.667 -68 -16 -86 -16c-25.333 0 -46.333 7.33301 -63 22c-40.667 23.333 -55.667 68.666 -45 135.999c0 14.667 6.66699 20.667 20 18c16.667 -18 45 -33 85 -45c46 -4.66699 88.667 10.333 128 45
c8.66699 10.667 19.667 45.334 33 104.001c1.33301 16.667 -6 35.334 -22 56.001c-21.333 30 -33 46 -35 48l3 4c20 -2.66699 27 -5 21 -7c2.66699 4.66699 3.33398 11 2.00098 19l-48 69c-15.333 -5.33301 -23.666 -30.666 -24.999 -75.999c3.33301 -22.667 15 -49 35 -79
c24 -34.667 38.333 -58 43 -70c-18.667 -25.333 -53.667 -42.666 -105 -51.999c-15.333 2.66699 -34.666 11.334 -57.999 26.001c26.667 20 48.334 32.333 65.001 37s25.667 25.667 27 63c-20.667 7.33301 -51.334 15.666 -92.001 24.999c-27.333 2 -66 0.666992 -116 -4
c-38.667 -2 -79.334 -16.333 -122.001 -43c-7.33301 -24 -11 -43.667 -11 -59c4.66699 0 12.167 3.5 22.5 10.5s20.166 10.5 29.499 10.5c19.333 0 49.333 -16 90 -48c-31.333 -21.333 -63 -32 -95 -32c-10.667 0 -21.667 1.66699 -33 5c-28.667 13.333 -47.667 39 -57 77
c-14 50.667 -22.333 122.667 -25 216c-5.33301 102.667 -12.666 176 -21.999 220h-7c-8 -17.333 -18.333 -43.333 -31 -78c2.66699 0 8.33398 -0.666992 17.001 -2c1.33301 -54 6.66602 -133.667 15.999 -239c6 -44.667 11.333 -88.334 16 -131.001
c8.66699 -50 27 -88.333 55 -115c16 -12 35 -18 57 -18c28 0 57 9 87 27c3.33301 0 9 3 17 9s14.333 8.33301 19 7c-9.33301 -36 -14 -65.333 -14 -88c0 -36 10 -63.333 30 -82c19.333 -30 64.333 -43.333 135 -40c58.667 12 112.834 37.5 162.501 76.5
s82.5 85.833 98.5 140.5c17.333 -82 51.333 -135.333 102 -160s109 -37 175 -37c57.333 0 184.666 27 381.999 81c67.333 19.333 170.333 41.333 309 66c14.667 19.333 23 38 25 56c-48 0 -91 -4.33301 -129 -13c-31.333 -1.33301 -134.333 12 -309 40
c32.667 14.667 142.667 48 330 100c19.333 25.333 29 41 29 47c-24 -1.33301 -75.333 -12.333 -154 -33l-69 17c-60.667 33.333 -89.667 72 -87 116c4.66699 10.667 19.667 19.334 45 26.001h7c52 14 104 10 156 -12c2 2.66699 3 7.66699 3 15
c-27.333 28 -53.666 46 -78.999 54c-34.667 9.33301 -70 3.66602 -106 -17.001c-23.333 -12.667 -44 -52 -62 -118zM702.995 766.991c11.333 3.33301 36 2 74 -4l-34 -25zM1530 1162.99c0 -4.66699 -1.99512 -12.665 -5.99512 -23.998s-5.33301 -22.333 -4 -33
c-1.33301 -30 8.66699 -65 30 -105c27.333 -45.333 42.666 -78.666 45.999 -99.999c2.66699 -4 4 -7.66699 4 -11c0 -6 -4.66699 -11.333 -14 -16c-14 -4.66699 -21.667 -8 -23 -10c-33.333 -6.66699 -58.666 6.66602 -75.999 39.999
c-9.33301 24 -18.833 60.833 -28.5 110.5s-18.5 85.5 -26.5 107.5c-2.66699 12.667 -10.334 27.667 -23.001 45c-14.667 -19.333 -23.334 -42.333 -26.001 -69c26.667 -69.333 41 -126 43 -170c-12.667 -39.333 -39.667 -65.666 -81 -78.999c-26 -1.33301 -45 6 -57 22
c-18.667 34.667 -28 75 -28 121c0 39.333 6.33301 82.666 19 129.999c2.66699 8 3.33398 14.333 2.00098 19c-1.33301 8 -6 11 -14 9c-2.66699 0 -11.334 -4.66699 -26.001 -14c-26 -33.333 -45 -78.333 -57 -135l-29 -147
c-1.33301 -16.667 -9.66602 -28.334 -24.999 -35.001c-14.667 -12.667 -31.334 -10.334 -50.001 6.99902c-34.667 28.667 -56.667 72.334 -66 131.001c3.33301 14 0.666016 32 -8.00098 54l-5 -2c-4.66699 -16 -7 -33.333 -7 -52c0 -30 9 -70.333 27 -121
c24.667 -46 58.667 -73 102 -81c6 0 12.667 3.33301 20 10c21.333 26 35.666 67 42.999 123c9.33301 66 19 110.333 29 133c3.33301 12 13.333 26 30 42c-7.33301 -46 -11 -85.667 -11 -119c0 -63.333 15 -112.333 45 -147c12 -6 34 -8.33301 66 -7
c23.333 4.66699 42.166 19 56.499 43l40.5 68c11.333 -52.667 34.333 -85 69 -97c33.333 -9.33301 62.333 -2 87 22c19.333 24 29 52.667 29 86c0 39.333 -19 96 -57 170c3.33301 2.66699 8 2.66699 14 0c6 -3.33301 10.667 -5 14 -5c2.66699 1.33301 4 7.66602 4 18.999
c-15.333 16 -35 42 -59 78c0 -1.33301 -4.33301 -5 -13 -11zM1084 839.993c6.66699 -9.33301 17.333 -14.667 32 -16c12 0 16.667 4 14 12l-43 372h-7c-16 -16 -25.667 -42.333 -29 -79c10 -108.667 21 -205 33 -289zM1374 1090.99
c2.66699 10 -2.00195 30.668 -14.002 62.001l-34 71l-22 -18c0 -4 -2.33301 -10.667 -7 -20c-2.66699 -8 -2.66699 -14.333 0 -19c14.667 -129.333 31.334 -229.333 50.001 -300c14.667 0 25.667 5.33301 33 16l-26 144c0 4.66699 -2.33301 17.667 -7 39
c-3.33301 13.333 -2.66602 24.666 2.00098 33.999c10 -7.33301 18.333 -10.333 25 -9zM1360 785.993c0 -15.333 2.66699 -40 8 -74s8 -60.667 8 -80c0 -17.333 -1.66699 -33 -5 -47l3 -5c18 27.333 27 62 27 104c0 16 -3.66699 54.667 -11 116zM1916 358.993l61 -30l31 62
l-62 31zM1753 396.993l30 62l-61 31l-32 -61zM482.997 439.993l-31 -61l61 -31l32 61zM934.997 207.993l-31 -59l63 -30l30 61zM1428 -153.007l-31 -62l62 -29l30 59zM887.997 1036.99l-61 31l-25 -50l-49 23l-30 -59l61 -31l23 48l50 -24zM352.997 -101.007l61 -32l24 50
l50 -25l31 61l-62 31l-23 -50l-50 26zM887.997 42.9932l61 -32l24 50l50 -25l30 61l-61 31l-23 -50l-50 24z" />
    <glyph glyph-name="u0624" unicode="&#x624;" horiz-adv-x="590" arabic-form="isolated" 
d="M607 335c0 -164.667 -26.334 -316.002 -79.001 -454.002c-40 -105.333 -91.333 -194.666 -154 -267.999c-50 -58.667 -86 -88 -108 -88c-79.333 0 -202.333 14 -369 42c-46.667 8 -70 27.667 -70 59c0 16.667 18 31.334 54 44.001c68 24 112.333 41 133 51
c276.667 136 435.334 279.333 476.001 430c-48 -4 -92.667 -6 -134 -6c-242 0 -363 62.667 -363 188c0 64.667 22.667 160.667 68 288c62 174.667 137.667 262 227 262c109.333 0 193.333 -68 252 -204c44.667 -104 67 -218.667 67 -344zM400.999 1110l-44 -75
c-133.333 -45.333 -241.333 -98 -324 -158c-12.667 32 -15 53 -7 63c12.667 16 45.667 42.333 99 79c-56.667 32 -85 66.333 -85 103c0 37.333 22 77.333 66 120s84.667 64 122 64c39.333 0 70.333 -15.333 93 -46c13.333 -18 20 -31.333 20 -40
c0 -9.33301 -8.33301 -14 -25 -14c-9.33301 0 -23 1.16699 -41 3.5s-31.667 3.5 -41 3.5c-67.333 0 -101 -14.333 -101 -43c0 -10.667 12.333 -25.667 37 -45c22.667 -17.333 40.667 -28.333 54 -33l146 47c6.66699 2 14 3 22 3c10.667 0 16 -4 16 -12
c0 -5.33301 -2.33301 -12 -7 -20z" />
    <glyph glyph-name="u0625" unicode="&#x625;" horiz-adv-x="1982" arabic-form="isolated" 
d="M1720 1449l4 -3.99805c-28.667 -51.333 -80.667 -98.333 -156 -141c-68 -40.667 -102 -69.334 -102 -86.001l4 -49v-6c0 -34 -27.333 -65.333 -82 -94h-2l-4 2l43 36c18.667 23.333 28 40.666 28 51.999l-8 49v6c0 27.333 38.333 62 115 104
c38 20.667 82.333 55.667 133 105c13.333 17.333 22.333 26 27 26zM1763 1150c20 0 36.333 -13.332 49 -39.999v-7c-28.667 -48.667 -50.667 -73 -66 -73l-49 22c-19.333 -30 -36.333 -47 -51 -51h-2l-47 20c-7.33301 0 -11 1 -11 3v2c40 57.333 62 88.666 66 93.999h2
c20.667 0 41 -9.66699 61 -29zM1691 837.003h4l4 -26c0 -64.667 -26 -132.334 -78 -203.001c-36.667 -42 -73.334 -63 -110.001 -63c-11.333 2.66699 -20.333 6.66699 -27 12c-68 -52 -142.333 -99 -223 -141c-200.667 -102.667 -396 -154 -586 -154
c-160 0 -263 38.333 -309 115c-16.667 28.667 -25 70.334 -25 125.001c0 69.333 19.333 164.666 58 285.999c1.33301 0 2 2 2 6l2 2h4c2.66699 0 4 -2.66699 4 -8c-18 -100 -27 -162.667 -27 -188v-2c0 -75.333 35 -128 105 -158c66.667 -28.667 144.334 -43 233.001 -43h31
c173.333 0 373.333 51.333 600 154c40.667 18.667 74.667 39 102 61v6c-8 18 -24.333 27 -49 27l-24 -2l-2 2v2c9.33301 28.667 34.333 52.334 75 71.001l43 7c49.333 -7.33301 74 -19 74 -35v-11c0 -8 -13 -30.333 -39 -67v-4h-2l4 -6h6c28.667 0 58.667 20.333 90 61
c6 9.33301 9 20.333 9 33v29c0 18.667 17 56 51 112zM214 790.003l2 -0.00292969v-2l-2 -10c10 -75.333 15 -131.333 15 -168c0 -138 -37 -256 -111 -354l-8 -18c2.66699 -12.667 8 -19 16 -19c18 0 108 20.667 270 62l29 4h4l4 -4v-2
c-9.33301 -7.33301 -55 -24.666 -137 -51.999c-20.667 -9.33301 -48 -26.333 -82 -51c-50.667 -24.667 -93 -37 -127 -37h-10c-28.667 0 -43 11 -43 33v2c0 31.333 40.333 103 121 215c19.333 32.667 29 72.334 29 119.001l-17 157c19.333 68.667 35 110.334 47 125.001z
M1928 692l2.00195 -0.000976562l5 -2v-2c0 -24.667 -10.333 -52.667 -31 -84c-6.66699 -7.33301 -18.334 -13 -35.001 -17c-23.333 -24 -45.333 -36 -66 -36c-5.33301 0 -18.666 6 -39.999 18l-15 2c-26 0 -42.333 -10.667 -49 -32v-9c0 -8 13 -23 39 -45
c6.66699 -8 10 -15.333 10 -22v-14c-5.33301 -23.333 -24.333 -48.666 -57 -75.999h-2l-68 20l-10 2c-30 0 -67 -27.333 -111 -82l-75 -65c-84.667 -58.667 -177 -108.667 -277 -150c-165.333 -68 -323.666 -102 -474.999 -102c-125.333 0 -233.333 24 -324 72
c-28.667 20 -45.667 30 -51 30c-13.333 0 -64.333 -51 -153 -153l-2 -2h-3l-2 2c23.333 50 77.333 120.333 162 211c34 31.333 58 47 72 47l115 -43c65.333 -20.667 143.666 -31 234.999 -31c251.333 0 485.666 70.333 702.999 211c4 0 56.333 41 157 123l64 39
c22 55.333 52 93.333 90 114c14.667 10.667 29.667 16 45 16h6c9.33301 0 19 -5.33301 29 -16l16 -4c14 0 25.667 9.66699 35 29h2h16c11.333 0 21.666 12.667 30.999 38c6.66699 8.66699 10.667 13 12 13zM1861 470.999h1.99805c2.66699 0 4 -4 4 -12l-25 -162
c-5.33301 -36.667 -8 -67.334 -8 -92.001c0 -52 10.333 -85.667 31 -101l12 -4c16.667 0 32.334 9.66699 47.001 29h6h2v-2c0 -38 -21 -83 -63 -135c-12 -12.667 -23 -19 -33 -19v0c-27.333 0 -43.666 28 -48.999 84l-2 31v23c0 88.667 21.333 203.334 64 344.001
c6.66699 10.667 10.667 16 12 16zM1824 -84.001c23.333 0 44.334 -12.333 63.001 -37l2 -6c-20 -45.333 -42.333 -74 -67 -86h-2c-24.667 12 -45.334 19.667 -62.001 23v2c40 68 62 102.667 66 104z" />
    <glyph glyph-name="u0626" unicode="&#x626;" horiz-adv-x="1631" arabic-form="isolated" 
d="M912 480l-384.001 -0.000976562c-188.667 0 -348.667 54.667 -480 164c-32 39.333 -48 75.333 -48 108c0 107.333 92 219.333 276 336c76 42 185.333 72.667 328 92c1.33301 0.666992 3 1.33398 5 2.00098h118c-6 -136 -43 -227.333 -111 -274
c-38.667 -25.333 -84 -40 -136 -44l-140 4h-48c-87.333 0 -138 -13.333 -152 -40v-16c14 -16 36.667 -24 68 -24h808c302 0 496.667 -60 584 -180c31.333 -40 52 -83.667 62 -131l-563 2c-53.333 0.666992 -115.666 1 -186.999 1z" />
    <glyph glyph-name="u0627" unicode="&#x627;" horiz-adv-x="192" arabic-form="isolated" 
d="M252 1243l-95.999 -1163c-4.66699 -57.333 -20 -86 -46 -86c-26.667 0 -44.334 36.333 -53.001 109l-114 973l270 196c12 8.66699 21.333 13 28 13c9.33301 0 13 -14 11 -42z" />
    <glyph glyph-name="u0628" unicode="&#x628;" horiz-adv-x="1661" arabic-form="isolated" 
d="M931 -264c8.66699 -8.66699 8.33301 -17.667 -1 -27l-124 -124c-8.66699 -8.66699 -17.667 -8.66699 -27 0l-127 123c-10 9.33301 -9 20 3 32l116 118c10 10.667 20.667 10.667 32 0zM1479 916c67.333 -34.667 121 -105.332 161 -211.999
c15.333 -36.667 23 -78.334 23 -125.001v-8c0 -243.333 -88 -405 -264 -485c-113.333 -56.667 -291.666 -85 -534.999 -85h-747l-1 -1v301l1 1l721 -3c323.333 0 541.666 31 654.999 93c16.667 15.333 25 30.333 25 45c0 34 -60.333 97.333 -181 190l-3 3v3
c92 188.667 140.333 283 145 283z" />
    <glyph glyph-name="u0629" unicode="&#x629;" horiz-adv-x="734" arabic-form="isolated" 
d="M731 436c0 -118 -37.332 -220.333 -111.999 -307c-78.667 -90.667 -176 -136 -292 -136c-208.667 0 -313 94.333 -313 283c0 118 30.667 244.667 92 380c57.333 126.667 104.666 190 141.999 190c69.333 0 163 -41.333 281 -124c134.667 -94.667 202 -190 202 -286z
M366.001 296c-150 0 -225 52 -225 156c0 24.667 6.33301 54.667 19 90c14.667 40.667 30 61 46 61c34 0 111 -31.333 231 -94c123.333 -64.667 185 -109 185 -133c0 -53.333 -85.333 -80 -256 -80zM512.001 1107l-44.001 -75c-133.333 -45.333 -241.333 -98 -324 -158
c-12.667 32 -15 53 -7 63c12.667 15.333 45.334 42 98.001 80c-56 31.333 -84 65.333 -84 102c0 37.333 21.833 77.333 65.5 120s84.5 64 122.5 64c38.667 0 69.667 -15.333 93 -46c13.333 -18 20 -31.333 20 -40c0 -9.33301 -8.66699 -14 -26 -14
c-8.66699 0 -22 1.16699 -40 3.5s-31.667 3.5 -41 3.5c-67.333 0 -101 -14.333 -101 -43c0 -10.667 12.333 -25.667 37 -45c22.667 -17.333 40.667 -28.333 54 -33l146 47c6.66699 2 14 3 22 3c10.667 0 16 -4 16 -12c0 -5.33301 -2.33301 -12 -7 -20z" />
    <glyph glyph-name="u062A" unicode="&#x62a;" horiz-adv-x="1670" arabic-form="isolated" 
d="M1017 781c8 -8 7.66699 -16.333 -1 -25l-116 -116c-8 -8 -16.333 -8 -25 0l-113 113l-112 -113c-8 -8 -16.333 -8 -25 0l-118 115c-9.33301 8.66699 -8.33301 18.667 3 30l108 110c9.33301 10 19 10 29 0l110 -110l110 110c10 10 20 10 30 0zM1485 916
c67.333 -34.667 121 -105.332 161 -211.999c15.333 -36.667 23 -78.334 23 -125.001v-8c0 -243.333 -88 -405 -264 -485c-113.333 -56.667 -291.666 -85 -534.999 -85h-747l-1 -1v301l1 1l721 -3c323.333 0 541.666 31 654.999 93c16.667 15.333 25 30.333 25 45
c0 34 -60.333 97.333 -181 190l-3 3v3c92 188.667 140.333 283 145 283z" />
    <glyph glyph-name="u062B" unicode="&#x62b;" horiz-adv-x="1647" arabic-form="isolated" 
d="M864 969c8 -7.33301 7.66797 -15.333 -0.999023 -24l-114 -115c-8.66699 -8.66699 -17.334 -8.66699 -26.001 0l-116 113c-9.33301 8.66699 -8.33301 18.667 3 30l107 109c9.33301 9.33301 19 9.33301 29 0zM997.001 781c8 -8 7.66699 -16.333 -1 -25l-116 -116
c-8 -8 -16.333 -8 -25 0l-113 113l-112 -113c-8 -8 -16.333 -8 -25 0l-118 115c-9.33301 8.66699 -8.33301 18.667 3 30l108 110c9.33301 10 19 10 29 0l110 -110l110 110c10 10 20 10 30 0zM1465 916c67.333 -34.667 121 -105.332 161 -211.999
c15.333 -36.667 23 -78.334 23 -125.001v-8c0 -243.333 -88 -405 -264 -485c-113.333 -56.667 -291.666 -85 -534.999 -85h-747l-1 -1v301l1 1l721 -3c323.333 0 541.666 31 654.999 93c16.667 15.333 25 30.333 25 45c0 34 -60.333 97.333 -181 190l-3 3v3
c92 188.667 140.333 283 145 283z" />
    <glyph glyph-name="u062C" unicode="&#x62c;" horiz-adv-x="1232" arabic-form="isolated" 
d="M1275 622l-55.998 -95c-32 -51.333 -57 -76.666 -75 -75.999c-134.667 4 -242.667 -1.66699 -324 -17c-146 -28 -266 -83.667 -360 -167c-107.333 -94.667 -161 -211.667 -161 -351c0 -134 61.667 -233.333 185 -298c96.667 -50.667 218.667 -76 366 -76
c100 0 194.333 6.66699 283 20c22 3.33301 38.333 5 49 5c36 0 54 -12.667 54 -38c0 -29.333 -51.333 -58 -154 -86c-112 -30.667 -237 -46 -375 -46c-183.333 0 -337.666 32 -462.999 96c-161.333 82.667 -242 207 -242 373c0 162.667 70 301.667 210 417
c119.333 98 276.666 171 471.999 219c-174.667 24 -302.334 36 -383.001 36c-47.333 0 -85.333 -12.333 -114 -37l-58 -65c-14.667 -16 -30 -24 -46 -24c-21.333 0 -32 13.333 -32 40c0 8 1 15.667 3 23c15.333 57.333 42.666 115.666 81.999 174.999
c64.667 97.333 138 146 220 146c37.333 0 104.333 -10 201 -30c105.333 -22 183.333 -35 234 -39c215.333 -18 366 -27 452 -27c36.667 0 55 -7.33301 55 -22c0 -11.333 -7.66699 -30 -23 -56zM857.002 -61c8.66699 -8 8.33301 -16.667 -1 -26l-125 -124
c-8.66699 -8.66699 -17.667 -8.66699 -27 0l-127 123c-10 9.33301 -9 20 3 32l117 118c10 10 20.333 10 31 0z" />
    <glyph glyph-name="u062D" unicode="&#x62d;" horiz-adv-x="1221" arabic-form="isolated" 
d="M1271 622l-55.999 -95c-32 -51.333 -56.667 -76.666 -74 -75.999c-134.667 4 -242.667 -1.66699 -324 -17c-146 -28 -266 -83.667 -360 -167c-107.333 -94.667 -161 -211.667 -161 -351c0 -134 61.667 -233.333 185 -298c96.667 -50.667 218.667 -76 366 -76
c99.333 0 193.666 6.66699 282.999 20c22 3.33301 38.333 5 49 5c35.333 0 53 -12.667 53 -38c0 -29.333 -51.333 -58 -154 -86c-112 -30.667 -236.667 -46 -374 -46c-183.333 0 -337.666 32 -462.999 96c-161.333 82.667 -242 207 -242 373
c0 168.667 74.667 311.667 224 429c118 92 270.667 161 458 207c-175.333 24 -303 36 -383 36c-48 0 -86 -12.333 -114 -37c-52 -59.333 -87 -89 -105 -89c-20.667 0 -31 13.333 -31 40c0 8 1 15.667 3 23c15.333 57.333 42.666 115.666 81.999 174.999
c64.667 97.333 138 146 220 146c36.667 0 103.667 -10 201 -30c106 -22 183.667 -35 233 -39c214 -18 365 -27 453 -27c36.667 0 55 -7.33301 55 -22c0 -10 -8 -28.667 -24 -56z" />
    <glyph glyph-name="u062E" unicode="&#x62e;" horiz-adv-x="1232" arabic-form="isolated" 
d="M1265 622l-55.999 -95c-32 -51.333 -56.667 -76.666 -74 -75.999c-134.667 4 -242.667 -1.66699 -324 -17c-146 -28 -266 -83.667 -360 -167c-107.333 -94.667 -161 -211.667 -161 -351c0 -134 61.667 -233.333 185 -298c96.667 -50.667 218.667 -76 366 -76
c99.333 0 193.666 6.66699 282.999 20c22 3.33301 38.333 5 49 5c35.333 0 53 -12.667 53 -38c0 -29.333 -51.333 -58 -154 -86c-112 -30.667 -236.667 -46 -374 -46c-183.333 0 -337.666 32 -462.999 96c-161.333 82.667 -242 207 -242 373
c0 168.667 74.667 311.667 224 429c118 92 270.667 161 458 207c-175.333 24 -303 36 -383 36c-48 0 -86 -12.333 -114 -37c-52 -59.333 -87 -89 -105 -89c-20.667 0 -31 13.333 -31 40c0 8 1 15.667 3 23c15.333 57.333 42.666 115.666 81.999 174.999
c64.667 97.333 138 146 220 146c36.667 0 103.667 -10 201 -30c106 -22 183.667 -35 233 -39c214 -18 365 -27 453 -27c36.667 0 55 -7.33301 55 -22c0 -10 -8 -28.667 -24 -56zM834.001 952c8.66699 -8 8.33203 -16.667 -1.00098 -26l-124 -124
c-8.66699 -8.66699 -17.667 -8.66699 -27 0l-127 123c-10 9.33301 -9 20 3 32l116 118c10.667 10.667 21.334 10.667 32.001 0z" />
    <glyph glyph-name="u062F" unicode="&#x62f;" horiz-adv-x="695" arabic-form="isolated" 
d="M221 1018h18c82 -13.333 197.333 -110.666 346 -291.999c74 -98.667 111 -188 111 -268c0 -217.333 -52.333 -353.333 -157 -408c-60 -34 -127 -51 -201 -51h-261c-26 0 -39 2.66699 -39 8v321h3c45.333 -15.333 98.333 -23 159 -23h93c190.667 0 292 24 304 72v3
c-4 52.667 -116.333 148.667 -337 288c-32 16 -59 25.667 -81 29h-12l-60 -17c-18.667 0 -29.667 12.333 -33 37c0 21.333 37 115.666 111 282.999c11.333 12 23.333 18 36 18z" />
    <glyph glyph-name="u0630" unicode="&#x630;" horiz-adv-x="622" arabic-form="isolated" 
d="M30 320c38 -9.33301 87.3311 -14.001 147.998 -14.001c234.667 0 352 26 352 78c0 34.667 -58.667 96.334 -176 185.001s-195.666 133 -234.999 133c-9.33301 0 -19.833 -3 -31.5 -9s-19.5 -9 -23.5 -9c-25.333 0 -38 13.333 -38 40c0 8.66699 2.33301 19 7 31l93 235
c8.66699 21.333 24.334 32 47.001 32c56 0 142 -63.333 258 -190c126.667 -138 190 -260.333 190 -367c0 -153.333 -21 -262.333 -63 -327c-59.333 -91.333 -160.333 -137 -303 -137h-202c-8 0 -15.667 0.333008 -23 1v318zM274.998 1237
c8.66699 -8 8.33203 -16.667 -1.00098 -26l-125 -125c-8.66699 -8.66699 -17.667 -8.66699 -27 0l-126 123c-10 10 -9 21 3 33l116 118c10.667 10.667 21.334 10.667 32.001 0z" />
    <glyph glyph-name="u0631" unicode="&#x631;" horiz-adv-x="447" arabic-form="isolated" 
d="M443 292c0 -232 -74.998 -428.998 -224.998 -590.998c-22.667 -24.667 -40.334 -40.334 -53.001 -47.001s-34.334 -10.334 -65.001 -11.001c-63.333 -2 -139 2 -227 12c-126 14 -189 35 -189 63c0 23.333 27 45.666 81 66.999c108 42.667 199.667 85.667 275 129
c195.333 112 293 208.333 293 289c0 68 -90.333 167.333 -271 298l145 220c9.33301 14.667 19 22 29 22c9.33301 0 22.333 -7.33301 39 -22c40 -35.333 76 -87.666 108 -156.999c40 -87.333 60 -178 60 -272z" />
    <glyph glyph-name="u0632" unicode="&#x632;" horiz-adv-x="515" arabic-form="isolated" 
d="M511 292c0 -232 -74.998 -428.998 -224.998 -590.998c-22.667 -24.667 -40.334 -40.334 -53.001 -47.001s-34.334 -10.334 -65.001 -11.001c-63.333 -2 -139 2 -227 12c-126 14 -189 35 -189 63c0 23.333 27 45.666 81 66.999c108 42.667 199.667 85.667 275 129
c195.333 112 293 208.333 293 289c0 68 -90.333 167.333 -271 298l145 220c9.33301 14.667 19 22 29 22c9.33301 0 22.333 -7.33301 39 -22c40 -35.333 76 -87.666 108 -156.999c40 -87.333 60 -178 60 -272zM394.002 1059c8.66699 -8 8.33301 -16.667 -1 -26l-125 -125
c-8.66699 -8.66699 -17.667 -8.66699 -27 0l-127 123c-10 10 -9 21 3 33l117 118c10 10 20.333 10 31 0z" />
    <glyph glyph-name="u0633" unicode="&#x633;" horiz-adv-x="1901" arabic-form="isolated" 
d="M1899 393c0 -100.667 -21 -188.334 -63 -263.001c-48.667 -86 -115 -129 -199 -129c-73.333 0 -128 35.667 -164 107c-33.333 -71.333 -80.666 -107 -141.999 -107c-40.667 0 -79 6.66699 -115 20c0 -202.667 -55.333 -357.167 -166 -463.5s-267.667 -159.5 -471 -159.5
c-160 0 -291 30.667 -393 92c-124.667 75.333 -187 187.333 -187 336c0 146.667 33.667 270.334 101 371.001c17.333 26 35.666 39 54.999 39c15.333 0 23 -10 23 -30c0 -11.333 -2.33301 -24 -7 -38c-24 -72.667 -36 -137.334 -36 -194.001c0 -182 149.333 -273 448 -273
c118.667 0 226.667 13.667 324 41c144.667 40.667 217 103.334 217 188.001c0 59.333 -83 177.666 -249 354.999l132 221c10.667 17.333 19.667 26 27 26s16.333 -6.66699 27 -20c56 -72 95.667 -118.667 119 -140c48 -44.667 94 -67 138 -67c34 0 60.667 32.333 80 97
s35.333 97 48 97c20 0 33.333 -16.667 40 -50c8.66699 -44.667 21 -75.667 37 -93c30.667 -34 84 -51 160 -51c63.333 0 95 25.333 95 76c0 39.333 -31.667 95.333 -95 168l112 153c7.33301 10 14.333 15 21 15c7.33301 0 13.333 -5.66699 18 -17
c43.333 -99.333 65 -201.666 65 -306.999z" />
    <glyph glyph-name="u0634" unicode="&#x634;" horiz-adv-x="1908" arabic-form="isolated" 
d="M1906 393c0 -100.667 -21 -188.334 -63 -263.001c-48.667 -86 -115 -129 -199 -129c-73.333 0 -128 35.667 -164 107c-33.333 -71.333 -80.666 -107 -141.999 -107c-40.667 0 -79 6.66699 -115 20c0 -202.667 -55.333 -357.167 -166 -463.5s-267.667 -159.5 -471 -159.5
c-160 0 -291 30.667 -393 92c-124.667 75.333 -187 187.333 -187 336c0 146.667 33.667 270.334 101 371.001c17.333 26 35.666 39 54.999 39c15.333 0 23 -10 23 -30c0 -11.333 -2.33301 -24 -7 -38c-24 -72.667 -36 -137.334 -36 -194.001c0 -182 149.333 -273 448 -273
c118.667 0 226.667 13.667 324 41c144.667 40.667 217 103.334 217 188.001c0 59.333 -83 177.666 -249 354.999l132 221c10.667 17.333 19.667 26 27 26s16.333 -6.66699 27 -20c56 -72 95.667 -118.667 119 -140c48 -44.667 94 -67 138 -67c34 0 60.667 32.333 80 97
s35.333 97 48 97c20 0 33.333 -16.667 40 -50c8.66699 -44.667 21 -75.667 37 -93c30.667 -34 84 -51 160 -51c63.333 0 95 25.333 95 76c0 39.333 -31.667 95.333 -95 168l112 153c7.33301 10 14.333 15 21 15c7.33301 0 13.333 -5.66699 18 -17
c43.333 -99.333 65 -201.666 65 -306.999zM1562 1009c8 -8 7.66699 -16.333 -1 -25l-115 -114c-8 -8 -16.333 -8 -25 0l-116 112c-9.33301 9.33301 -8.66602 19.333 2.00098 30l108 109c9.33301 9.33301 18.666 9.33301 27.999 0zM1684 819c8 -8 7.66699 -16.333 -1 -25
l-117 -116c-8.66699 -8 -17 -8 -25 0l-113 113l-111 -113c-8 -8 -16.333 -8 -25 0l-119 115c-9.33301 8.66699 -8.33301 18.667 3 30l108 110c10 10 20 10 30 0l110 -110l110 110c9.33301 9.33301 19 9.33301 29 0z" />
    <glyph glyph-name="u0635" unicode="&#x635;" horiz-adv-x="2140" arabic-form="isolated" 
d="M2136 570c0 -160 -75.332 -297 -225.999 -411c-139.333 -105.333 -291.333 -158 -456 -158c-58 0 -107.333 5.33301 -148 16c-11.333 2.66699 -37.666 10 -78.999 22c0 -427.333 -213.333 -641 -640 -641c-160 0 -291 30.667 -393 92
c-124.667 75.333 -187 187.333 -187 336c0 146.667 33.667 270.334 101 371.001c17.333 26 35.666 39 54.999 39c15.333 0 23 -10 23 -30c0 -11.333 -2.33301 -24 -7 -38c-24 -72.667 -36 -137.334 -36 -194.001c0 -182 149.333 -273 448 -273
c118.667 0 226.667 13.667 324 41c144.667 40.667 217 103.334 217 188.001c0 59.333 -83 177.666 -249 354.999l123 221c9.33301 16.667 18.333 25 27 25c8 0 17 -6.33301 27 -19c54.667 -70.667 116.667 -125 186 -163c87.333 112 190 208.667 308 290
c137.333 94.667 261.666 142 372.999 142c56.667 0 105.667 -21 147 -63s62 -91.333 62 -148zM1810 319c-78.667 -14.667 -171.667 -22.001 -279 -22.001c-82 0 -144 4 -186 12c114.667 149.333 240.667 224 378 224c45.333 0 92.333 -11.667 141 -35
c58 -28 87 -62.333 87 -103c0 -33.333 -47 -58.666 -141 -75.999z" />
    <glyph glyph-name="u0636" unicode="&#x636;" horiz-adv-x="2126" arabic-form="isolated" 
d="M2122 570c0 -160 -75.332 -297 -225.999 -411c-139.333 -105.333 -291.333 -158 -456 -158c-58 0 -107.333 5.33301 -148 16c-11.333 2.66699 -37.666 10 -78.999 22c0 -427.333 -213.333 -641 -640 -641c-160 0 -291 30.667 -393 92
c-124.667 75.333 -187 187.333 -187 336c0 146.667 33.667 270.334 101 371.001c17.333 26 35.666 39 54.999 39c15.333 0 23 -10 23 -30c0 -11.333 -2.33301 -24 -7 -38c-24 -72.667 -36 -137.334 -36 -194.001c0 -182 149.333 -273 448 -273
c118.667 0 226.667 13.667 324 41c144.667 40.667 217 103.334 217 188.001c0 59.333 -83 177.666 -249 354.999l123 221c9.33301 16.667 18.333 25 27 25c8 0 17 -6.33301 27 -19c54.667 -70.667 116.667 -125 186 -163c87.333 112 190 208.667 308 290
c137.333 94.667 261.666 142 372.999 142c56.667 0 105.667 -21 147 -63s62 -91.333 62 -148zM1796 319c-78.667 -14.667 -171.667 -22.001 -279 -22.001c-82 0 -144 4 -186 12c114.667 149.333 240.667 224 378 224c45.333 0 92.333 -11.667 141 -35
c58 -28 87 -62.333 87 -103c0 -33.333 -47 -58.666 -141 -75.999zM1493 968.999c8.66699 -8 8.33203 -16.667 -1.00098 -26l-124 -125c-8.66699 -8.66699 -17.667 -8.66699 -27 0l-127 123c-10 10 -9 21 3 33l116 118c10.667 10.667 21.334 10.667 32.001 0z" />
    <glyph glyph-name="u0637" unicode="&#x637;" horiz-adv-x="1454" arabic-form="isolated" 
d="M1451 557c0 -78 -42.332 -163.001 -126.999 -255.001c-125.333 -136 -277.333 -226 -456 -270c-84 -20.667 -198.333 -31 -343 -31c-92.667 0 -253.334 89.667 -482.001 269c-22.667 18 -34 34 -34 48c0 20.667 19.333 29 58 25l361 -35c22 50 33 115.333 33 196
c0 176 -36 364.667 -108 566l168 195c14.667 16.667 26 25 34 25c7.33301 0 15.666 -10 24.999 -30l121 -265c9.33301 -20.667 14 -35.667 14 -45c0 -13.333 -8.33301 -20 -25 -20c-15.333 0 -40.333 5.33301 -75 16c0.666992 -123.333 -8.66602 -238.666 -27.999 -345.999
l-36 -189c270 228 495.667 342 677 342c61.333 0 113 -17 155 -51c45.333 -36.667 68 -85 68 -145zM765.001 296.999c-65.333 0 -134.001 2.00098 -206.001 6.00098c204.667 162.667 368.334 244 491.001 244c43.333 0 84 -10.333 122 -31
c45.333 -24.667 68 -56.334 68 -95.001c0 -82.667 -158.333 -124 -475 -124z" />
    <glyph glyph-name="u0638" unicode="&#x638;" horiz-adv-x="1448" arabic-form="isolated" 
d="M1445 557c0 -78 -42.332 -163.001 -126.999 -255.001c-125.333 -136 -277.333 -226 -456 -270c-84 -20.667 -198.333 -31 -343 -31c-92.667 0 -253.334 89.667 -482.001 269c-22.667 18 -34 34 -34 48c0 20.667 19.333 29 58 25l361 -35c22 50 33 115.333 33 196
c0 176 -36 364.667 -108 566l168 195c14.667 16.667 26 25 34 25c7.33301 0 15.666 -10 24.999 -30l121 -265c9.33301 -20.667 14 -35.667 14 -45c0 -13.333 -8.33301 -20 -25 -20c-15.333 0 -40.333 5.33301 -75 16c0.666992 -123.333 -8.66602 -238.666 -27.999 -345.999
l-36 -189c270 228 495.667 342 677 342c61.333 0 113 -17 155 -51c45.333 -36.667 68 -85 68 -145zM1164 1085c8.66699 -8.66699 8.33301 -17.667 -1 -27l-124 -124c-8.66699 -8.66699 -17.667 -8.66699 -27 0l-127 123c-10 9.33301 -9 20 3 32l116 118
c10 10.667 20.667 10.667 32 0z" />
    <glyph glyph-name="u0639" unicode="&#x639;" horiz-adv-x="1225" arabic-form="isolated" 
d="M1211 443c-47.333 -119.333 -81 -183.999 -101 -193.999c-8 -4 -24.667 -5 -50 -3c-156.667 11.333 -276.334 17 -359.001 17c-123.333 0 -223.666 -32 -300.999 -96c-83.333 -68 -125 -162.667 -125 -284c0 -134.667 58.333 -234.667 175 -300
c92 -51.333 211.333 -77 358 -77c120 0 233.333 9.33301 340 28c11.333 2 21.333 3 30 3c30.667 0 46 -9.66699 46 -29c0 -28.667 -24.333 -51.334 -73 -68.001c-137.333 -47.333 -299 -71 -485 -71c-182 0 -328.333 26.333 -439 79c-150.667 72 -226 189 -226 351
c0 132 46.333 244.667 139 338c81.333 82.667 190 143 326 181c-84 42.667 -126 96.667 -126 162c0 40 15.667 97.667 47 173c100 240 246.333 360 439 360c65.333 0 124.166 -20 176.499 -60s88.5 -91.333 108.5 -154c8 -25.333 12 -45 12 -59c0 -22 -9.33301 -33 -28 -33
c-15.333 0 -37.666 7 -66.999 21c-67.333 32 -149 48 -245 48c-60 0 -116.333 -10.667 -169 -32c-67.333 -27.333 -101 -64 -101 -110c0 -90 137.667 -135 413 -135c79.333 0 149.333 3 210 9c26.667 2.66699 44.667 4 54 4c23.333 0 35 -7 35 -21
c0 -8.66699 -4.66699 -24.667 -14 -48z" />
    <glyph glyph-name="u063A" unicode="&#x63a;" horiz-adv-x="1189" arabic-form="isolated" 
d="M1207 443c-47.333 -119.333 -81 -183.999 -101 -193.999c-8 -4 -24.667 -5 -50 -3c-156.667 11.333 -276.334 17 -359.001 17c-123.333 0 -223.666 -32 -300.999 -96c-83.333 -68 -125 -162.667 -125 -284c0 -134.667 58.333 -234.667 175 -300
c92 -51.333 211.333 -77 358 -77c120 0 233.333 9.33301 340 28c11.333 2 21.333 3 30 3c30.667 0 46 -9.66699 46 -29c0 -28.667 -24.333 -51.334 -73 -68.001c-137.333 -47.333 -299 -71 -485 -71c-182 0 -328.333 26.333 -439 79c-150.667 72 -226 189 -226 351
c0 132 46.333 244.667 139 338c81.333 82.667 190 143 326 181c-84 42.667 -126 96.667 -126 162c0 40 15.667 97.667 47 173c100 240 246.333 360 439 360c65.333 0 124.166 -20 176.499 -60s88.5 -91.333 108.5 -154c8 -25.333 12 -45 12 -59c0 -22 -9.33301 -33 -28 -33
c-15.333 0 -37.666 7 -66.999 21c-67.333 32 -149 48 -245 48c-60 0 -116.333 -10.667 -169 -32c-67.333 -27.333 -101 -64 -101 -110c0 -90 137.667 -135 413 -135c79.333 0 149.333 3 210 9c26.667 2.66699 44.667 4 54 4c23.333 0 35 -7 35 -21
c0 -8.66699 -4.66699 -24.667 -14 -48zM921 1246c8.66699 -8 8.33203 -16.667 -1.00098 -26l-125 -124c-8.66699 -8.66699 -17.667 -8.66699 -27 0l-126 123c-10 9.33301 -9 20 3 32l116 118c10.667 10.667 21.334 10.667 32.001 0z" />
    <glyph glyph-name="u0641" unicode="&#x641;" horiz-adv-x="1539" arabic-form="isolated" 
d="M1537 549c0 6.66699 0.333008 6.33496 1 -0.998047v-33v-38c0 -134 -40.333 -236.333 -121 -307c-128 -112.667 -363 -169 -705 -169c-304.667 0 -509.334 42 -614.001 126c-68 54.667 -102 145 -102 271c0 110 19.667 205.667 59 287c16 32.667 33.667 49 53 49
c18 0 27 -13.333 27 -40c0 -8 -0.333008 -14 -1 -18c-8.66699 -50.667 -13 -83 -13 -97c0 -101.333 40 -171.333 120 -210c88 -42.667 253 -64 495 -64c206 0 346.667 3.66699 422 11c171.333 16.667 257 54 257 112c-94.667 -12 -166 -18 -214 -18
c-161.333 0 -242 54.667 -242 164c0 83.333 20 170.666 60 261.999c52 118 119.333 177 202 177c108.667 0 191.334 -53 248.001 -159c45.333 -84.667 68 -186.334 68 -305.001zM1218 641.001c-88 0 -132 17.666 -132 52.999c0 24.667 8.66699 44.834 26 60.501
s38.333 23.5 63 23.5c72 0 134.333 -40 187 -120c-45.333 -11.333 -93.333 -17 -144 -17zM1374 1230c8.66699 -8 8.33301 -16.667 -1 -26l-125 -125c-8.66699 -8.66699 -17.667 -8.66699 -27 0l-127 123c-10 9.33301 -9 20 3 32l116 119c10 10.667 20.667 10.667 32 0z" />
    <glyph glyph-name="u0642" unicode="&#x642;" horiz-adv-x="1243" arabic-form="isolated" 
d="M1239 372c0 -244.667 -54.001 -423.998 -162.001 -537.998c-111.333 -118 -288.333 -177 -531 -177c-145.333 0 -267.333 27.333 -366 82c-122.667 68 -184 169 -184 303c0 164 28.333 299.333 85 406c14 26.667 31.333 40 52 40c21.333 0 32 -12.667 32 -38
c0 -8 -2 -17.667 -6 -29c-17.333 -48 -26 -97 -26 -147c0 -114.667 55.333 -198.667 166 -252c83.333 -40 189.333 -60 318 -60c126.667 0 234.667 18.667 324 56c122.667 51.333 184 131.666 184 240.999c-144 0 -243 5.33301 -297 16c-130.667 26 -196 83.667 -196 173
c0 65.333 24 161 72 287c64.667 170 143.334 255 236.001 255c73.333 0 138 -45.333 194 -136c70 -112.667 105 -273.334 105 -482.001zM777.999 612.002c0 19.333 10.5 40.167 31.5 62.5s40.833 33.5 59.5 33.5c49.333 0 97.333 -22.333 144 -67
c42 -40 62.667 -73.667 62 -101c-198 0 -297 24 -297 72zM1187 1262c8 -7.33301 7.66797 -15.332 -0.999023 -23.999l-116 -116c-8 -8 -16.333 -8 -25 0l-113 112l-111 -112c-8.66699 -8.66699 -17.334 -8.66699 -26.001 0l-118 114
c-9.33301 9.33301 -8.33301 19.666 3 30.999l108 110c10 10 20 10 30 0l110 -110l109 110c10 10 20 10 30 0z" />
    <glyph glyph-name="u0643" unicode="&#x643;" horiz-adv-x="1623" arabic-form="isolated" 
d="M690 305l305.001 0.000976562c186 0 279 20 279 60c0 27.333 -85 165 -255 413c-1.33301 2.66699 -2 5.66699 -2 9c0 19.333 10.333 59.666 31 120.999c21.333 64.667 37.666 99 48.999 103l526 181v-224l-375 -130c115.333 -173.333 173 -312.333 173 -417
c0 -110.667 -27 -203 -81 -277c-69.333 -95.333 -176.333 -143 -321 -143h-329v304zM690.001 1.00098h-581v304h581v-304zM766.001 899.001c8 1.33301 11.999 -4.00098 11.999 -16.001c0 -13.333 -4.33301 -30 -13 -50c-10 -22.667 -20.333 -35 -31 -37
c-119.333 -20.667 -179 -39.667 -179 -57l79.5 -49c53 -32.667 79.5 -63.667 79.5 -93c0 -46 -28.667 -82 -86 -108c-45.333 -20.667 -93.666 -31 -144.999 -31h-164c-13.333 0 -20 5 -20 15c0 9.33301 7.66699 25 23 47s27.333 33 36 33c52 -5.33301 94.667 -8 128 -8
c61.333 0 92 8.66699 92 26c0 2.66699 -26.5 20.834 -79.5 54.501s-79.5 62.167 -79.5 85.5c0 87.333 115.667 150 347 188z" />
    <glyph glyph-name="u0644" unicode="&#x644;" horiz-adv-x="1243" arabic-form="isolated" 
d="M1329 1018c5.33301 -10.667 8 -19.666 8 -26.999c0 -14 -12 -21 -36 -21c-16 0 -39 3 -69 9l-46 -1016c-6 -134.667 -47.333 -246 -124 -334c-114 -130.667 -297.333 -196 -550 -196c-144 0 -263 34.667 -357 104c-105.333 78 -158 186.333 -158 325
c0 44 9 103.667 27 179s37 131.333 57 168c13.333 24.667 29 37 47 37c17.333 0 26 -10.667 26 -32c0 -6.66699 -1.33301 -14.334 -4 -23.001c-17.333 -55.333 -26 -100.333 -26 -135c0 -212.667 143.667 -319 431 -319c147.333 0 274 27 380 81c86 44 129 83 129 117
c0 332 -33.667 716.667 -101 1154l183 203c9.33301 10 18 15 26 15c10.667 0 20 -8 28 -24z" />
    <glyph glyph-name="u0645" unicode="&#x645;" horiz-adv-x="836" arabic-form="isolated" 
d="M872 595c0 -54.667 -20.667 -126.669 -62 -216.002c-47.333 -102 -94.666 -151 -141.999 -147l-383 31c-8 0.666992 -15.667 1 -23 1c-56 0 -84 -28 -84 -84v-519c0 -44 -8.66699 -97.667 -26 -161c-22.667 -82 -49.334 -123 -80.001 -123
c-23.333 0 -36.666 39 -39.999 117l-30 769c-3.33301 84.667 16 153.334 58 206.001c45.333 56 110 83.333 194 82c-19.333 36 -29 71.333 -29 106c0 35.333 25.667 84.333 77 147c55.333 67.333 104.666 101 147.999 101c49.333 0 129 -35 239 -105
c122 -77.333 183 -145.666 183 -204.999zM732 508.998c0 -7.33301 -7.33301 -11 -22 -11c-2 0 -8 0.666992 -18 2c-154.667 20 -262 32 -322 36c-16.667 20 -25 40.667 -25 62c0 36 19 54 57 54c88 0 185.333 -34.667 292 -104c25.333 -16.667 38 -29.667 38 -39z" />
    <glyph glyph-name="u0646" unicode="&#x646;" horiz-adv-x="1208" arabic-form="isolated" 
d="M1219 305c0 -180 -38.332 -317.667 -114.999 -413c-110 -137.333 -305.333 -206 -586 -206c-128 0 -238 26.667 -330 80c-127.333 74 -191 189.667 -191 347c0 120.667 25 236.334 75 347.001c20.667 45.333 42.334 68 65.001 68c22 0 33 -15 33 -45
c0 -27.333 -6.33301 -67.833 -19 -121.5s-19 -94.167 -19 -121.5c0 -88 51 -153.333 153 -196c81.333 -34 181 -51 299 -51c99.333 0 202 15.333 308 46c146.667 42.667 220 101 220 175s-83 193 -249 357l136 227c10 16.667 18 25 24 25c5.33301 0 14.666 -7 27.999 -21
c43.333 -45.333 80.666 -109.333 111.999 -192c37.333 -98.667 56 -200.334 56 -305.001zM724.001 505c8.66699 -8 8.33301 -16.667 -1 -26l-125 -125c-8.66699 -8.66699 -17.667 -8.66699 -27 0l-127 123c-10 9.33301 -9 20 3 32l117 119c10 10 20.333 10 31 0z" />
    <glyph glyph-name="u0647" unicode="&#x647;" horiz-adv-x="727" arabic-form="isolated" 
d="M724 436c0 -118 -37.332 -220.333 -111.999 -307c-78.667 -90.667 -176 -136 -292 -136c-208.667 0 -313 94.333 -313 283c0 118 30.667 244.667 92 380c57.333 126.667 104.666 190 141.999 190c69.333 0 163 -41.333 281 -124c134.667 -94.667 202 -190 202 -286z
M359.001 296c-150 0 -225 52 -225 156c0 24.667 6.33301 54.667 19 90c14.667 40.667 30 61 46 61c34 0 111 -31.333 231 -94c123.333 -64.667 185 -109 185 -133c0 -53.333 -85.333 -80 -256 -80z" />
    <glyph glyph-name="u0648" unicode="&#x648;" horiz-adv-x="594" arabic-form="isolated" 
d="M592 335c0 -164.667 -26.334 -316.002 -79.001 -454.002c-40 -105.333 -91.333 -194.666 -154 -267.999c-50 -58.667 -86 -88 -108 -88c-79.333 0 -202.333 14 -369 42c-46.667 8 -70 27.667 -70 59c0 16.667 18 31.334 54 44.001c68 24 112.333 41 133 51
c276.667 136 435.334 279.333 476.001 430c-48 -4 -92.667 -6 -134 -6c-242 0 -363 62.667 -363 188c0 64.667 22.667 160.667 68 288c62 174.667 137.667 262 227 262c109.333 0 193.333 -68 252 -204c44.667 -104 67 -218.667 67 -344zM335.999 446.998
c-137.333 0 -206 20.667 -206 62c0 64 34 96 102 96c28 0 58.333 -10.333 91 -31c45.333 -28.667 76.333 -69.667 93 -123c-24 -2.66699 -50.667 -4 -80 -4z" />
    <glyph glyph-name="u0649" unicode="&#x649;" horiz-adv-x="1436" arabic-form="isolated" 
d="M1494 644c0 -26 -11.334 -39 -34.001 -39c14.667 0 22.334 1.33301 23.001 4c0 5.33301 -32.667 16.333 -98 33c-97.333 24 -166 36 -206 36c-112 0 -200 -31.667 -264 -95c-44.667 -44 -67 -84.333 -67 -121c0 -26 49 -47 147 -63l180 -21
c78.667 -11.333 135 -26 169 -44c63.333 -33.333 95 -88.666 95 -165.999c0 -139.333 -21 -240 -63 -302c-124 -182.667 -384 -274 -780 -274c-164.667 0 -299 30 -403 90c-129.333 74.667 -194 188.334 -194 341.001c0 63.333 15.333 152.333 46 267
c37.333 140 78.666 210 123.999 210c17.333 0 26 -12.333 26 -37c0 -12 -2.66699 -25.667 -8 -41c-23.333 -68.667 -35 -141 -35 -217c0 -130 71 -220.667 213 -272c103.333 -37.333 252.333 -56 447 -56c138 0 258 11.333 360 34c120.667 26.667 181 64.667 181 114
c0 25.333 -40.667 43.666 -122 54.999l-255 33c-104.667 14 -174 31.667 -208 53c-46 29.333 -69 84 -69 164c0 44 20.667 111 62 201c48.667 106 106.334 193.333 173.001 262c84 86.667 171.667 130 263 130c80 0 151.667 -36.333 215 -109
c54.667 -62.667 82 -119.334 82 -170.001z" />
    <glyph glyph-name="u064A" unicode="&#x64a;" horiz-adv-x="1425" arabic-form="isolated" 
d="M321 -373c-48 14 -91.667 32.332 -131 54.999c-129.333 74.667 -194 188.334 -194 341.001c0 63.333 15.333 152.333 46 267c37.333 140 78.666 210 123.999 210c17.333 0 26 -12.333 26 -37c0 -12 -2.66699 -25.667 -8 -41c-23.333 -68.667 -35 -141 -35 -217
c0 -116.667 57.333 -201.667 172 -255l31 -13l10 -4h2c20 -6.66699 42 -13 66 -19c97.333 -24.667 223.666 -37 378.999 -37c138 0 258 11.333 360 34c120.667 26.667 181 64.667 181 114c0 25.333 -40.667 43.666 -122 54.999l-255 33c-104.667 14 -174 31.667 -208 53
c-46 29.333 -69 84 -69 164c0 44 20.667 111 62 201c48.667 106 106.334 193.333 173.001 262c84 86.667 171.667 130 263 130c80 0 151.667 -36.333 215 -109c54.667 -62.667 82 -119.334 82 -170.001c0 -26 -11.333 -39 -34 -39c14.667 0 22.334 1.33301 23.001 4
c0 5.33301 -32.667 16.333 -98 33c-97.333 24 -166 36 -206 36c-112 0 -200 -31.667 -264 -95c-44.667 -44 -67 -84.333 -67 -121c0 -26 49 -47 147 -63l180 -21c78.667 -11.333 135 -26 169 -44c63.333 -33.333 95 -88.666 95 -165.999c0 -139.333 -21 -240 -63 -302
c-124 -182.667 -384 -274 -780 -274c-60 0 -115.667 4.33301 -167 13c-21.333 2.66699 -42 6.33398 -62 11.001c-4 1.33301 -8 2.33301 -12 3z" />
    <glyph glyph-name="u067E" unicode="&#x67e;" horiz-adv-x="1647" arabic-form="isolated" 
d="M646 -365c-8 7.33301 -7.66699 15.333 1 24l114 114c8 8 16.333 8 25 0l117 -112c9.33301 -8.66699 8.33301 -18.667 -3 -30l-107 -109c-9.33301 -9.33301 -19 -9.33301 -29 0zM506 -184c-8 7.33301 -7.66699 15.332 1 23.999l116 116c8 8 16.333 8 25 0l113 -112
l112 112c8 8 16.333 8 25 0l118 -114c9.33301 -9.33301 8.33301 -19.666 -3 -30.999l-108 -110c-10 -10 -20 -10 -30 0l-109 110l-110 -110c-10 -10 -20 -10 -30 0zM1465 915.999c67.333 -34.667 121 -105.332 161 -211.999c15.333 -36.667 23 -78.334 23 -125.001v-8
c0 -243.333 -88 -405 -264 -485c-113.333 -56.667 -291.666 -85 -534.999 -85h-747l-1 -1v301l1 1l721 -3c323.333 0 541.666 31 654.999 93c16.667 15.333 25 30.333 25 45c0 34 -60.333 97.333 -181 190l-3 3v3c92 188.667 140.333 283 145 283z" />
    <glyph glyph-name="u0686" unicode="&#x686;" horiz-adv-x="1221" arabic-form="isolated" 
d="M1269 622l-55.998 -95c-32 -51.333 -57 -76.666 -75 -75.999c-134.667 4 -242.667 -1.66699 -324 -17c-146 -28 -266 -83.667 -360 -167c-107.333 -94.667 -161 -211.667 -161 -351c0 -134 61.667 -233.333 185 -298c96.667 -50.667 218.667 -76 366 -76
c100 0 194.333 6.66699 283 20c22 3.33301 38.333 5 49 5c36 0 54 -12.667 54 -38c0 -29.333 -51.333 -58 -154 -86c-112 -30.667 -237 -46 -375 -46c-183.333 0 -337.666 32 -462.999 96c-161.333 82.667 -242 207 -242 373c0 162.667 70 301.667 210 417
c119.333 98 276.666 171 471.999 219c-174.667 24 -302.334 36 -383.001 36c-47.333 0 -85.333 -12.333 -114 -37l-58 -65c-14.667 -16 -30 -24 -46 -24c-21.333 0 -32 13.333 -32 40c0 8 1 15.667 3 23c15.333 57.333 42.666 115.666 81.999 174.999
c64.667 97.333 138 146 220 146c37.333 0 104.333 -10 201 -30c105.333 -22 183.333 -35 234 -39c215.333 -18 366 -27 452 -27c36.667 0 55 -7.33301 55 -22c0 -11.333 -7.66699 -30 -23 -56zM648.002 -195c-8 7.33301 -7.66699 15.333 1 24l114 114c8 8 16.333 8 25 0
l117 -112c9.33301 -8.66699 8.33301 -18.667 -3 -30l-107 -109c-9.33301 -9.33301 -19 -9.33301 -29 0zM526.002 34c-8 8 -7.66699 16.332 1 24.999l116 116c8.66699 8.66699 17 8.66699 25 0l113 -113l112 113c8 8 16.333 8 25 0l118 -114
c9.33301 -9.33301 8.33301 -19.666 -3 -30.999l-108 -110c-10 -10 -20 -10 -30 0l-109 110l-110 -110c-10 -10 -20 -10 -30 0z" />
    <glyph glyph-name="u0698" unicode="&#x698;" horiz-adv-x="515" arabic-form="isolated" 
d="M511 292c0 -232 -74.998 -428.998 -224.998 -590.998c-22.667 -24.667 -40.334 -40.334 -53.001 -47.001s-34.334 -10.334 -65.001 -11.001c-63.333 -2 -139 2 -227 12c-126 14 -189 35 -189 63c0 23.333 27 45.666 81 66.999c108 42.667 199.667 85.667 275 129
c195.333 112 293 208.333 293 289c0 68 -90.333 167.333 -271 298l145 220c9.33301 14.667 19 22 29 22c9.33301 0 22.333 -7.33301 39 -22c40 -35.333 76 -87.666 108 -156.999c40 -87.333 60 -178 60 -272zM382.002 1176c8 -7.33301 7.66602 -15.334 -1.00098 -24.001
l-115 -115c-8 -8 -16.333 -8 -25 0l-116 113c-9.33301 8.66699 -8.66602 18.334 2.00098 29.001l107 109c9.33301 9.33301 19 9.33301 29 0zM504.001 946.001c8 -7.33301 7.66699 -15.333 -1 -24l-117 -117c-8 -8 -16.333 -8 -25 0l-113 113l-111 -113
c-8 -8 -16.333 -8 -25 0l-119 115c-9.33301 8.66699 -8.33301 18.667 3 30l108 110c10 10 20 10 30 0l110 -110l110 110c9.33301 9.33301 19 9.33301 29 0z" />
    <glyph glyph-name="u06AF" unicode="&#x6af;" horiz-adv-x="1686" arabic-form="isolated" 
d="M1686 1142l-578 -158c-3.33301 -0.666992 -5 2 -5 8c0 12 5 32.667 15 62c11.333 32 21 49 29 51l539 146v-109zM473 307c30.667 -1.33301 63.666 -2.00098 98.999 -2.00098h452c186 0 279 17.333 279 52c0 27.333 -85 136.666 -255 327.999c-1.33301 2.66699 -2 8 -2 16
c0 20.667 6.33301 58.667 19 114c14 60.667 26.333 92.334 37 95.001l584 153v-215l-409 -103c18 -22.667 49.333 -64.667 94 -126c48 -69.333 72 -142.666 72 -219.999c0 -265.333 -128.333 -398 -385 -398h-512c-25.333 0 -49.666 0.666992 -72.999 2v304z
M766.999 958.999c8 1.33301 11.999 -4.00098 11.999 -16.001c0 -13.333 -4.33301 -30 -13 -50c-10 -22.667 -20.333 -35 -31 -37c-119.333 -20.667 -179 -39.667 -179 -57l79.5 -49c53 -32.667 79.5 -63.667 79.5 -93c0 -46 -28.667 -82 -86 -108
c-45.333 -20.667 -93.666 -31 -144.999 -31h-164c-13.333 0 -20 5 -20 15c0 9.33301 7.66699 25 23 47s27.333 33 36 33c52 -5.33301 94.667 -8 128 -8c61.333 0 92 8.66699 92 26c0 2.66699 -26.5 20.834 -79.5 54.501s-79.5 62.167 -79.5 85.5
c0 87.333 115.667 150 347 188zM680.998 0.998047h-581v304h581v-304z" />
    <glyph glyph-name="uFB57" unicode="&#x67e;" horiz-adv-x="1732" arabic-form="final" 
d="M561 -472c-8 7.33301 -7.66699 15.333 1 24l114 115c8 8 16.333 8 25 0l117 -113c9.33301 -8.66699 8.33301 -18.667 -3 -30l-107 -109c-9.33301 -9.33301 -19 -9.33301 -29 0zM439 -272c-8 7.33301 -7.66699 15.332 1 23.999l116 116c8 8 16.333 8 25 0l113 -112
l112 112c8 8 16.333 8 25 0l118 -114c9.33301 -9.33301 8.33301 -19.666 -3 -30.999l-108 -110c-9.33301 -10 -19 -10 -29 0l-110 110l-110 -110c-10 -10 -20 -10 -30 0zM1574 501.999c21.333 -7.33301 32 -22 32 -44l-20 -88c0 -42.667 56 -64 168 -64l4 -4v-292l-8 -8h-32
c-108 0 -184 60 -228 180h-4c-64 -75.333 -172 -130 -324 -164c-93.333 -16 -204 -26.667 -332 -32v4l-4 -4h-4l-724 4v4v300v5l48 -1l416 -4h216c258 0 462 24 612 72c17.333 6 64 44.667 140 116c20 13.333 34.667 20 44 20z" />
    <glyph glyph-name="uFB58" unicode="&#x67e;" horiz-adv-x="375" arabic-form="initial" 
d="M377 435c0 -103.333 -24 -196 -72 -278c-60.667 -104 -147 -156 -259 -156h-74v305h62c132 0 198 19.333 198 58c0 34 -59.333 105.667 -178 215l143 220c8 12 17.333 13.667 28 5c54.667 -44.667 95.667 -110.334 123 -197.001c19.333 -61.333 29 -118.666 29 -171.999z
M-136 -438c-8 8 -7.66699 16.334 1 25.001l115 114c8 8 16.333 8 25 0l116 -113c8.66699 -8.66699 7.66699 -18.334 -3 -29.001l-107 -109c-8.66699 -9.33301 -18 -9.33301 -28 0zM-258 -227.999c-8 8 -7.66602 16.333 1.00098 25l117 116c8.66699 8.66699 17 8.66699 25 0
l112 -113l112 113c8 8 16.333 8 25 0l118 -115c9.33301 -9.33301 8.66602 -19.333 -2.00098 -30l-108 -110c-10 -10 -20 -10 -30 0l-110 110l-110 -110c-10 -10 -20 -10 -30 0z" />
    <glyph glyph-name="uFB59" unicode="&#x67e;" horiz-adv-x="556" arabic-form="medial" 
d="M584 1h-75c-113.333 0 -191 64.333 -233 193c-38 -128.667 -110.667 -193 -218 -193h-86v305h55c106.667 0 174.667 70 204 210c9.33301 44.667 26 67 50 67s38.667 -22.333 44 -67c16 -140 77.333 -210 184 -210h75v-305zM-136 -488c-8 8 -7.66699 16.334 1 25.001
l115 114c8 8 16.333 8 25 0l116 -113c8.66699 -8.66699 7.66699 -18.334 -3 -29.001l-107 -109c-8.66699 -9.33301 -18 -9.33301 -28 0zM-258 -267.999c-8 8 -7.66602 16.333 1.00098 25l117 116c8.66699 8.66699 17 8.66699 25 0l112 -113l112 113c8 8 16.333 8 25 0
l118 -115c9.33301 -9.33301 8.66602 -19.333 -2.00098 -30l-108 -110c-10 -10 -20 -10 -30 0l-110 110l-110 -110c-10 -10 -20 -10 -30 0z" />
    <glyph glyph-name="uFB7B" unicode="&#x686;" horiz-adv-x="1293" arabic-form="final" 
d="M1329 1h-145.998c-142 0 -241 37.667 -297 113c-48 64.667 -72 171.334 -72 320.001c-146 -25.333 -266.333 -80.333 -361 -165c-106.667 -96 -160 -213.667 -160 -353c0 -134 61.667 -233.333 185 -298c96.667 -50.667 218.667 -76 366 -76c92.667 0 187 6.66699 283 20
c68.667 9.33301 103 -1.66699 103 -33c0 -29.333 -51.667 -58 -155 -86c-112.667 -30.667 -237.334 -46 -374.001 -46c-183.333 0 -337.666 32 -462.999 96c-161.333 82.667 -242 207 -242 373c0 162.667 70 301.667 210 417c119.333 98 276.666 171 471.999 219
c-174.667 24 -302.334 36 -383.001 36c-47.333 0 -85.333 -12.333 -114 -37l-58 -65c-14.667 -16 -30 -24 -46 -24c-21.333 0 -32 13.333 -32 40c0 8 1 15.667 3 23c15.333 57.333 42.666 115.666 81.999 174.999c64.667 97.333 138 146 220 146
c37.333 0 104.333 -10 201 -30c105.333 -22 183.333 -35 234 -39c215.333 -18 366 -27 452 -27c36.667 0 55 -7.33301 55 -22s-26 -64.667 -78 -150c-31.333 -51.333 -56.666 -77 -75.999 -77c-105.333 1.33301 -181 -0.666992 -227 -6c0 -92.667 64.667 -139 194 -139h224
v-305zM495.002 -231c-8 7.33301 -7.66699 15.333 1 24l115 115c8 8 16.333 8 25 0l116 -113c9.33301 -8.66699 8.33301 -18.667 -3 -30l-107 -109c-9.33301 -9.33301 -19 -9.33301 -29 0zM373.002 -1c-8 7.33301 -7.66797 15.332 0.999023 23.999l116 117
c8.66699 8.66699 17.334 8.66699 26.001 0l112 -113l112 113c8 8 16.333 8 25 0l118 -115c9.33301 -9.33301 8.33301 -19.666 -3 -30.999l-108 -109c-9.33301 -9.33301 -19 -9.33301 -29 0l-110 109l-110 -109c-10 -10 -20 -10 -30 0z" />
    <glyph glyph-name="uFB7C" unicode="&#x686;" horiz-adv-x="1221" arabic-form="initial" 
d="M1277 516l-85.001 -157.002c-11.333 -20.667 -25.333 -32 -42 -34c3.33301 0.666992 -29.334 1 -98.001 1c-52.667 0 -129.667 -28 -231 -84c-158 -87.333 -257 -139.666 -297 -156.999c-129.333 -56 -255.666 -84 -378.999 -84h-173v305h162
c121.333 0 225.333 10 312 30c54.667 12.667 143.334 42 266.001 88c-42 12 -123.333 41.667 -244 89c-93.333 36.667 -154.666 55 -183.999 55c-40 0 -70.667 -9 -92 -27l-51 -55c-14 -15.333 -30 -23 -48 -23c-22.667 0 -34 13.333 -34 40c0 8.66699 1.66699 18 5 28
c16 48.667 47.333 102 94 160c65.333 81.333 132 122 200 122c33.333 0 151.666 -37 354.999 -111c212 -76.667 389 -119 531 -127c30 -1.33301 45 -9.66602 45 -24.999c0 -8 -4 -19.333 -12 -34zM527.999 -447.002c-8 7.33301 -7.66699 15.333 1 24l114 115
c8 8 16.333 8 25 0l117 -113c9.33301 -8.66699 8.33301 -18.667 -3 -30l-107 -108c-9.33301 -9.33301 -19 -9.33301 -29 0zM405.999 -217.002c-8 7.33301 -7.66699 15.332 1 23.999l116 117c8 8.66699 16.333 8.66699 25 0l113 -113l112 113c8 8 16.333 8 25 0l118 -115
c9.33301 -9.33301 8.33301 -19.666 -3 -30.999l-108 -109c-10 -10 -20 -10 -30 0l-109 109l-110 -109c-10 -10 -20 -10 -30 0z" />
    <glyph glyph-name="uFB7D" unicode="&#x686;" horiz-adv-x="1336" arabic-form="medial" 
d="M1364 1h-182.003c-143.333 0 -237.666 39.667 -282.999 119c-27.333 47.333 -41 131.333 -41 252c-118 -105.333 -211.333 -180 -280 -224c-153.333 -98 -300.666 -147 -441.999 -147h-164v305h125c120 0 239.333 20.333 358 61c68 23.333 163 65.333 285 126
c-266 73.333 -426.667 110 -482 110c-30.667 0 -57.667 -9 -81 -27c-5.33301 -4 -21.333 -21 -48 -51c-17.333 -19.333 -34 -29 -50 -29c-21.333 0 -32 13.333 -32 40c0 9.33301 2 20 6 32c16.667 50 47 104 91 162c66 86.667 133.333 130 202 130
c47.333 0 113.333 -12.667 198 -38c119.333 -35.333 202.333 -58 249 -68c159.333 -32.667 307 -56.334 443 -71.001c32.667 -3.33301 49 -11.666 49 -24.999c0 -8 -5 -20.667 -15 -38l-106 -184c-57.333 4.66699 -99.666 7 -126.999 7c-57.333 0 -86 -15.333 -86 -46
c0 -60.667 75.333 -91 226 -91h187v-305zM507.997 -387c-8 7.33301 -7.66699 15.333 1 24l114 115c8 8 16.333 8 25 0l117 -113c9.33301 -8.66699 8.33301 -18.667 -3 -30l-107 -108c-9.33301 -9.33301 -19 -9.33301 -29 0zM385.997 -177
c-8 7.33301 -7.66699 15.332 1 23.999l116 117c8 8.66699 16.333 8.66699 25 0l113 -113l112 113c8 8 16.333 8 25 0l118 -115c9.33301 -9.33301 8.33301 -19.666 -3 -30.999l-108 -109c-10 -10 -20 -10 -30 0l-109 109l-110 -109c-10 -10 -20 -10 -30 0z" />
    <glyph glyph-name="uFB8B" unicode="&#x698;" horiz-adv-x="726" arabic-form="final" 
d="M583 1l-56.001 0.00195312c-18 0 -33 6 -45 18c2.66699 -218.667 -67.666 -405.334 -210.999 -560.001c-22.667 -24.667 -39.667 -40 -51 -46c-14 -8 -36.333 -12.333 -67 -13c-58 -2 -133.667 2.33301 -227 13c-126 14 -189 35 -189 63c0 23.333 27 45.666 81 66.999
c108 42.667 199.667 85.667 275 129c195.333 112 293 208.333 293 289c0 68 -90.333 167.333 -271 298l152 226c10.667 16 19 24 25 24s16 -8 30 -24c102 -119.333 179.667 -179 233 -179h28v-305zM415.999 904.002c8 -7.33301 7.66699 -15.333 -1 -24l-115 -114
c-8 -8 -16.333 -8 -25 0l-116 112c-9.33301 8.66699 -8.33301 18.667 3 30l107 109c9.33301 9.33301 19 9.33301 29 0zM537.999 704.002c8 -7.33301 7.66699 -15.332 -1 -23.999l-116 -116c-4 -4 -8.33301 -6 -13 -6s-9 2 -13 6l-112 112l-112 -112c-8 -8 -16.333 -8 -25 0
l-118 114c-10 9.33301 -9.33301 19.666 2 30.999l108 110c10 10 20 10 30 0l110 -110l110 110c10 10 20 10 30 0zM531.999 306.003h224l8 -8l2 -289l-8 -8h-224l-8 8l-2 289z" />
    <glyph glyph-name="uFEDA" unicode="&#x6a9;" horiz-adv-x="1902" arabic-form="final" 
d="M512 305l447 -0.00195312c186 0 279 20 279 60c0 27.333 -78 155 -234 383c-1.33301 2.66699 -2 7.66699 -2 15c0 22.667 7 67.334 21 134.001c15.333 72.667 28 110.667 38 114l556 182v-222l-405 -133c149.333 -239.333 233 -370.333 251 -393
c74 -92.667 157.333 -139 250 -139h216v-305h-142c-120 0 -213 19.667 -279 59c-54 32 -109 92 -165 180c-25.333 -89.333 -69 -152.666 -131 -189.999c-54.667 -32.667 -131 -49 -229 -49h-471v304zM752 958.998c8 1.33301 11.999 -4.00098 11.999 -16.001
c0 -13.333 -4.33301 -30 -13 -50c-10 -22.667 -20.333 -35 -31 -37c-119.333 -20.667 -179 -39.667 -179 -57l79.5 -49c53 -32.667 79.5 -63.667 79.5 -93c0 -46 -28.667 -82 -86 -108c-45.333 -20.667 -93.666 -31 -144.999 -31h-164c-13.333 0 -20 5 -20 15
c0 9.33301 7.66699 25 23 47s27.333 33 36 33c52 -5.33301 94.667 -8 128 -8c61.333 0 92 8.66699 92 26c0 2.66699 -26.5 20.834 -79.5 54.501s-79.5 62.167 -79.5 85.5c0 87.333 115.667 150 347 188zM685.999 0.99707h-581v304h581v-304z" />
    <glyph glyph-name="uFEDB" unicode="&#x6a9;" horiz-adv-x="655" arabic-form="initial" 
d="M655 976l-397.999 -138.001c19.333 -30.667 52.666 -86.667 99.999 -168c48.667 -86.667 73 -169.667 73 -249c0 -114 -29.667 -209.667 -89 -287c-68 -88.667 -163 -133 -285 -133h-84v305h32c186 0 279 19.667 279 59c0 27.333 -85 165 -255 413
c-1.33301 2.66699 -2 5.66699 -2 9c0 16.667 10.833 57.334 32.5 122.001s37.5 98.667 47.5 102l549 189v-224zM655.001 1200v-224v224z" />
    <glyph glyph-name="uFEDC" unicode="&#x6a9;" horiz-adv-x="994" arabic-form="medial" 
d="M723 992l-468 -154.001c149.333 -239.333 233 -370.333 251 -393c74 -92.667 157.667 -139 251 -139h215v-305h-142c-119.333 0 -212 19.667 -278 59c-54.667 32 -110 92 -166 180c-21.333 -74.667 -53.666 -130 -96.999 -166c-58.667 -48.667 -146.334 -73 -263.001 -73
h-54v305h30c186 0 279 19.667 279 59c0 27.333 -78 155 -234 383c-1.33301 2.66699 -2 7.66699 -2 15c0 22.667 7 67.334 21 134.001c15.333 72.667 28 110.667 38 114l619 203v-222zM932 305.999h130l5 -8l1 -289l-5 -8h-130l-5 8l-1 289z" />
    <glyph glyph-name="uFB93" unicode="&#x6af;" horiz-adv-x="1946" arabic-form="final" 
d="M1657 1136l-571 -161.001c-3.33301 -1.33301 -5 1.33398 -5 8.00098c0 11.333 5.5 32.5 16.5 63.5s20.167 47.5 27.5 49.5l532 149v-109zM476 305.999h15c19.333 -0.666992 39 -1 59 -1h452c186 0 279 17.333 279 52c0 27.333 -85 136.666 -255 327.999
c-1.33301 2.66699 -2 8 -2 16c0 20.667 6.33301 58.667 19 114c14 60.667 26.333 92.334 37 95.001l577 149v-210l-402 -104l270 -331c71.333 -72 148.666 -108 231.999 -108h217v-305h-190c-172 0 -305.333 82.333 -400 247c-31.333 -81.333 -65 -138.333 -101 -171
c-55.333 -50.667 -137.666 -76 -246.999 -76h-512c-16 0 -32 0.333008 -48 1v304zM755 918.999c8 1.33301 11.999 -4.00098 11.999 -16.001c0 -13.333 -4.33301 -30 -13 -50c-10 -22.667 -20.333 -35 -31 -37c-119.333 -20.667 -179 -39.667 -179 -57l79.5 -49
c53 -32.667 79.5 -63.667 79.5 -93c0 -46 -28.667 -82 -86 -108c-45.333 -20.667 -93.666 -31 -144.999 -31h-164c-13.333 0 -20 5 -20 15c0 9.33301 7.66699 25 23 47s27.333 33 36 33c52 -5.33301 94.667 -8 128 -8c61.333 0 92 8.66699 92 26
c0 2.66699 -26.5 20.834 -79.5 54.501s-79.5 62.167 -79.5 85.5c0 87.333 115.667 150 347 188zM700.999 0.998047h-581v304h581v-304z" />
    <glyph glyph-name="uFB94" unicode="&#x6af;" horiz-adv-x="597" arabic-form="initial" 
d="M603 1125l-510 -139c-3.33301 -0.666992 -5 2 -5 8c0 12 5 32.667 15 62c11.333 32 21 49 29 51l471 127v-109zM603 1234v-109v109zM603 832l-340 -85.001c110 -128 165 -243.333 165 -346c0 -266.667 -128.333 -400 -385 -400h-70v305h36c186.667 0 280 17.667 280 53
c0 26.667 -85 136 -255 328c-2 2 -3 7.33301 -3 16c0 21.333 6.33301 59.333 19 114c14 60.667 26.667 92.334 38 95.001l515 135v-215zM603 1047v-215v215z" />
    <glyph glyph-name="uFB95" unicode="&#x6af;" horiz-adv-x="1105" arabic-form="medial" 
d="M828 1184l-742 -209.001c-3.33301 -1.33301 -5 1.33398 -5 8.00098c0 11.333 5.5 32.5 16.5 63.5s20.167 47.5 27.5 49.5l703 197v-109zM828 892.999l-572.999 -148.002c164.667 -205.333 254.667 -315.666 270 -330.999c71.333 -72 148.666 -108 231.999 -108h217v-305
h-190c-172.667 0 -306 82.333 -400 247c-34.667 -164.667 -151 -247 -349 -247h-63v305h30c186 0 279 17 279 51c0 26.667 -85 136 -255 328c-2 2 -3 7.33301 -3 16c0 19.333 6.66699 57.333 20 114c14 60.667 26.333 92.334 37 95.001l748 194v-211zM925.001 305.997h224
l8 -8l2 -289l-8 -8h-224l-8 8l-2 289z" />
    <glyph glyph-name="uFE94" unicode="&#x6c0;" horiz-adv-x="1190" arabic-form="final" 
d="M1042 0c-168 0 -306.667 36 -416 108l-40 28h-4c-144 -90.667 -252 -136 -324 -136h-32c-90 -0 -159.333 73.333 -208 220l-4 32v24c0 172 200 385.333 600 640c58 37.333 100.667 60 128 68h20c14 0 55.333 -92 124 -276l8 -16l-84 -32
c114.667 -82 172 -155.333 172 -220c0 -58.667 -30.667 -102.667 -92 -132v-4h338l2 -304h-188zM522 428c0 -37.333 29.333 -61.333 88 -72c138.667 62.667 208 112 208 148v4c-13.333 42.667 -53.333 64 -120 64c-41.333 0 -92 -28 -152 -84
c-16 -18.667 -24 -38.667 -24 -60zM170 228c0 -15.333 13.334 -26 40.001 -32c46 0 130 30.667 252 92c-24.667 26.667 -47.334 74.667 -68.001 144c-149.333 -86.667 -224 -154.667 -224 -204z" />
    <glyph glyph-name="uFEF2" unicode="&#x6cc;" horiz-adv-x="1000" arabic-form="final" 
d="M385 -263h-142c-161.333 0 -242 46.333 -242 139c0 86.667 58.667 177.667 176 273c129.333 104.667 299 157 509 157h68v-305h-413c-137.333 0 -206 -17.667 -206 -53c0 -30 68.667 -45 206 -45h44v-166zM385 -97h381v-166h-381v166zM734 306h291v-305h-291v305z" />
    <glyph glyph-name="uFEF3" unicode="&#x6cc;" horiz-adv-x="371" arabic-form="initial" 
d="M377 435c0 -103.333 -24 -196 -72 -278c-60.667 -104 -147 -156 -259 -156h-74v305h62c132 0 198 19.333 198 58c0 34 -59.333 105.667 -178 215l143 220c8 12 17.333 13.667 28 5c54.667 -44.667 95.667 -110.334 123 -197.001c19.333 -61.333 29 -118.666 29 -171.999z
M269 -232c8 -7.33301 7.66699 -15.332 -1 -23.999l-116 -116c-4.66699 -4.66699 -9 -7 -13 -7s-8.33301 2.33301 -13 7l-112 112l-112 -112c-8 -8 -16.333 -8 -25 0l-118 114c-10 9.33301 -9.33301 19.666 2 30.999l108 110c10 10 20 10 30 0l110 -110l110 110
c10 10 20 10 30 0z" />
    <glyph glyph-name="uFEF4" unicode="&#x6cc;" horiz-adv-x="556" arabic-form="medial" 
d="M584 1h-75c-113.333 0 -191 64.333 -233 193c-38 -128.667 -110.667 -193 -218 -193h-86v305h55c106.667 0 174.667 70 204 210c9.33301 44.667 26 67 50 67s38.667 -22.333 44 -67c16 -140 77.333 -210 184 -210h75v-305zM258 -252
c8 -7.33301 7.66699 -15.332 -1 -23.999l-116 -116c-4.66699 -4.66699 -9 -7 -13 -7s-8.33301 2.33301 -13 7l-112 112l-112 -112c-8 -8 -16.333 -8 -25 0l-118 114c-10 9.33301 -9.33301 19.666 2 30.999l108 110c10 10 20 10 30 0l110 -110l110 110c10 10 20 10 30 0z" />
    <glyph glyph-name="Hcircumflex" unicode="&#x622;" horiz-adv-x="327" arabic-form="final" 
d="M353 1h-98c-176.667 0 -265 142.333 -265 427c0 226.667 -8.33301 465.667 -25 717l182 128c22.667 16 37.667 24 45 24c9.33301 0 14 -16.667 14 -50l-1 -798c0 -95.333 40 -143 120 -143h28v-305zM517 1478c-45.333 -46.667 -116 -86.668 -212 -120.001
c-90 -30.667 -170.667 -46 -242 -46c-26 0 -64.5 4.33301 -115.5 13s-89.5 13 -115.5 13c-14 0 -30.667 -7.5 -50 -22.5s-34.333 -22.5 -45 -22.5c-14 0 -21 8.66699 -21 26c0 24.667 13.333 61.334 40 110.001c32.667 59.333 81 89 145 89
c25.333 0 65.333 -6.16699 120 -18.5s96 -18.5 124 -18.5c132 0 250.333 11.667 355 35c21.333 4.66699 32 1 32 -11c0 -8 -5 -17 -15 -27z" />
    <glyph glyph-name="uFE84" unicode="&#x623;" horiz-adv-x="341" arabic-form="final" 
d="M367 1h-98c-176.667 0 -265 142.333 -265 427c0 226.667 -8.33301 465.667 -25 717l182 128c22.667 16 37.667 24 45 24c9.33301 0 14 -16.667 14 -50l-1 -798c0 -95.333 40 -143 120 -143h28v-305zM291 1519l-44 -73.998c-133.333 -45.333 -241.333 -98 -324 -158
c-12.667 32 -15 53 -7 63c12 15.333 44.667 41.666 98 78.999c-56 32 -84 66 -84 102c0 38 21.833 78.333 65.5 121s84.5 64 122.5 64c38.667 0 69.667 -15.667 93 -47c13.333 -18 20 -31 20 -39c0 -10 -8.66699 -15 -26 -15c-8.66699 0 -22 1.16699 -40 3.5
s-31.667 3.5 -41 3.5c-67.333 0 -101 -14 -101 -42c0 -11.333 12.333 -26.333 37 -45c21.333 -16 39.333 -27 54 -33c45.333 15.333 94 30.666 146 45.999c6.66699 2 14 3 22 3c10.667 0 16 -3.66699 16 -11c0 -6 -2.33301 -13 -7 -21z" />
    <glyph glyph-name="uFE86" unicode="&#x624;" horiz-adv-x="783" arabic-form="final" 
d="M811 1l-201 0.000976562c-30.667 -232.667 -110.334 -418.334 -239.001 -557.001c-42 -45.333 -72 -68 -90 -68c-79.333 0 -202.333 14 -369 42c-46.667 8 -70 27.667 -70 59c0 16.667 18 31.334 54 44.001c67.333 23.333 111.666 40.333 132.999 51
c278.667 138 437.334 278 476.001 420c-143.333 0 -243 5.66699 -299 17c-132 26.667 -198 85 -198 175c0 71.333 22.667 169.666 68 294.999c61.333 170 137 255 227 255c92 0 167 -50.667 225 -152c44.667 -78 73.334 -170 86.001 -276h197v-305zM453 1021
l-43.001 -73.999c-134 -45.333 -242 -98.333 -324 -159c-12.667 33.333 -15.334 54.666 -8.00098 63.999c11.333 14.667 44.333 41 99 79c-56.667 32 -85 66 -85 102c0 37.333 21.833 77.5 65.5 120.5s84.5 64.5 122.5 64.5c38.667 0 69.667 -15.667 93 -47
c14 -18.667 21 -31.667 21 -39c0 -10 -8.66699 -15 -26 -15c-8.66699 0 -22.167 1.16699 -40.5 3.5s-32.166 3.5 -41.499 3.5c-67.333 0 -101 -14 -101 -42c0 -11.333 12.667 -26.666 38 -45.999c22 -16.667 40 -27.334 54 -32.001c42.667 14.667 91.334 30 146.001 46
c6.66699 2 13.667 3 21 3c11.333 0 17 -3.66699 17 -11c0 -4.66699 -2.66699 -11.667 -8 -21z" />
    <glyph glyph-name="uFE88" unicode="&#x625;" horiz-adv-x="320" arabic-form="final" 
d="M348 1h-98.001c-177.333 0 -266 142.333 -266 427c0 226.667 -8.33301 465.667 -25 717l183 128c22.667 16 37.334 24 44.001 24c9.33301 0 14 -16.667 14 -50v-798c0 -95.333 40 -143 120 -143h28v-305zM296.999 -298l-43 -74c-134 -45.333 -242 -98.333 -324 -159
c-12.667 32.667 -15.334 54 -8.00098 64c10.667 14 43.667 40.333 99 79c-56.667 32 -85 66 -85 102c0 37.333 21.833 77.5 65.5 120.5s84.5 64.5 122.5 64.5c38.667 0 69.667 -15.667 93 -47c13.333 -18 20 -31.333 20 -40c0 -9.33301 -8.33301 -14 -25 -14
c-8.66699 0 -22.167 1.16699 -40.5 3.5s-32.166 3.5 -41.499 3.5c-67.333 0 -101 -14 -101 -42c0 -12 12.333 -27.333 37 -46c20.667 -16 38.667 -27 54 -33c51.333 17.333 100.333 33 147 47c6.66699 2 13.667 3 21 3c10.667 0 16 -4 16 -12
c0 -5.33301 -2.33301 -12 -7 -20z" />
    <glyph glyph-name="uFE8A" unicode="&#x626;" horiz-adv-x="2000" arabic-form="final" 
d="M2025 306v-305v305zM2025 1h-1737c-87.333 0 -138 -13 -152 -39v-16c14 -15.333 36.667 -23 68 -23h808c301.333 0 495.666 -59.333 582.999 -178c45.333 -56.667 68 -121.334 68 -194.001v-24c0 -134 -37.333 -266 -112 -396c-16 -14.667 -32 -24 -48 -28
c-15.333 0 -26 12 -32 36c32 99.333 48 170.666 48 213.999c0 108.667 -66.667 190.334 -200 245.001c0 13.333 -137 20 -411 20h-384c-188.667 0 -348.667 54 -480 162c-32 38.667 -48 74.334 -48 107.001c0 108 96 221.333 288 340c119.333 52.667 239.333 79 360 79h1381
v-305z" />
    <glyph glyph-name="uFE8B" unicode="&#x626;" horiz-adv-x="389" arabic-form="initial" 
d="M386 435c0 -104.667 -23.666 -197.333 -70.999 -278c-60.667 -104 -147.334 -156 -260.001 -156h-74v305h62c132 0 198 19.333 198 58c0 34 -59.333 105.667 -178 215l144 220c8 12 17.333 13.667 28 5c55.333 -45.333 96.333 -111 123 -197
c18.667 -60 28 -117.333 28 -172zM197.001 922.001l-42.999 -74.999c-134 -45.333 -242 -98 -324 -158c-12.667 32.667 -15.334 53.667 -8.00098 63c12 15.333 45 41.666 99 78.999c-56.667 32 -85 66.333 -85 103c0 37.333 22 77.333 66 120s84.667 64 122 64
c39.333 0 70.333 -15.333 93 -46c13.333 -18 20 -31.333 20 -40c0 -9.33301 -8.33301 -14 -25 -14c-9.33301 0 -23 1.16699 -41 3.5s-31.667 3.5 -41 3.5c-67.333 0 -101 -14.333 -101 -43c0 -10.667 12.333 -25.667 37 -45c22.667 -17.333 40.667 -28.333 54 -33
c51.333 17.333 100.333 33 147 47c6.66699 2 13.667 3 21 3c10.667 0 16 -4 16 -12c0 -5.33301 -2.33301 -12 -7 -20z" />
    <glyph glyph-name="uFE8C" unicode="&#x626;" horiz-adv-x="565" arabic-form="medial" 
d="M593 1h-73.999c-114 0 -192 64.333 -234 193c-37.333 -128.667 -110 -193 -218 -193h-86v305h55c106.667 0 174.667 70 204 210c9.33301 44.667 26.333 67 51 67c23.333 0 37.666 -22.333 42.999 -67c16 -140 77.667 -210 185 -210h74v-305zM231.001 804l-44 -74
c-133.333 -46 -241.333 -99 -324 -159c-12.667 32.667 -15 54 -7 64c12 14.667 45 41 99 79c-56.667 31.333 -85 65.333 -85 102c0 38 21.833 78.167 65.5 120.5s84.5 63.5 122.5 63.5c38.667 0 69.667 -15.333 93 -46c13.333 -18 20 -31.333 20 -40
c0 -9.33301 -8.33301 -14 -25 -14c-9.33301 0 -23 1.16699 -41 3.5s-31.667 3.5 -41 3.5c-67.333 0 -101 -14 -101 -42c0 -12 12.333 -27.333 37 -46c20.667 -16 38.667 -27 54 -33l146 47c6.66699 2 14 3 22 3c10.667 0 16 -4 16 -12c0 -5.33301 -2.33301 -12 -7 -20z" />
    <glyph glyph-name="uFE8E" unicode="&#x627;" horiz-adv-x="462" arabic-form="final" 
d="M367 1h-98c-176.667 0 -265 142.333 -265 427c0 226.667 -8.33301 465.667 -25 717l182 128c22.667 16 37.667 24 45 24c9.33301 0 14 -16.667 14 -50l-1 -798c0 -95.333 40 -143 120 -143h28v-305zM328 306h152l6 -8l1 -289l-5 -8h-152l-6 8l-1 289z" />
    <glyph glyph-name="uFE90" unicode="&#x628;" horiz-adv-x="1745" arabic-form="final" 
d="M878 -264c8.66699 -8.66699 8.33301 -17.667 -1 -27l-124 -124c-8.66699 -8.66699 -17.667 -8.66699 -27 0l-127 123c-10 9.33301 -9 20 3 32l116 118c10 10.667 20.667 10.667 32 0zM1587 502c21.333 -7.33301 32 -22 32 -44l-20 -88c0 -42.667 56 -64 168 -64l4 -4
v-292l-8 -8h-32c-108 0 -184 60 -228 180h-4c-64 -75.333 -172 -130 -324 -164c-93.333 -16 -204 -26.667 -332 -32v4l-4 -4h-4l-724 4v4v300v5l48 -1l416 -4h216c258 0 462 24 612 72c17.333 6 64 44.667 140 116c20 13.333 34.667 20 44 20z" />
    <glyph glyph-name="uFE91" unicode="&#x628;" horiz-adv-x="380" arabic-form="initial" 
d="M377 435c0 -103.333 -24 -196 -72 -278c-60.667 -104 -147 -156 -259 -156h-74v305h62c132 0 198 19.333 198 58c0 34 -59.333 105.667 -178 215l143 220c8 12 17.333 13.667 28 5c54.667 -44.667 95.667 -110.334 123 -197.001c19.333 -61.333 29 -118.666 29 -171.999z
M151 -235c8.66699 -8 8.33203 -16.667 -1.00098 -26l-125 -124c-8.66699 -8.66699 -17.667 -8.66699 -27 0l-126 122c-10 10 -9 21 3 33l116 118c10.667 10.667 21.334 10.667 32.001 0z" />
    <glyph glyph-name="uFE92" unicode="&#x628;" horiz-adv-x="556" arabic-form="medial" 
d="M584 1h-75c-113.333 0 -191 64.333 -233 193c-38 -128.667 -110.667 -193 -218 -193h-86v305h55c106.667 0 174.667 70 204 210c9.33301 44.667 26 67 50 67s38.667 -22.333 44 -67c16 -140 77.333 -210 184 -210h75v-305zM147 -241c8.66699 -8 8.33301 -16.667 -1 -26
l-125 -124c-8.66699 -8.66699 -17.667 -8.66699 -27 0l-126 122c-10.667 10 -10 21 2 33l117 118c10 10 20.333 10 31 0z" />
    <glyph glyph-name="uFE96" unicode="&#x62a;" horiz-adv-x="1739" arabic-form="final" 
d="M944 787c8 -7.33301 7.66699 -15.332 -1 -23.999l-117 -117c-8.66699 -8.66699 -17 -8.66699 -25 0l-112 113l-112 -113c-8 -8 -16.333 -8 -25 0l-119 115c-9.33301 9.33301 -8.33301 19.666 3 30.999l108 109c10 10 20 10 30 0l110 -109l110 109c10 10 20 10 30 0z
M1581 502.001c21.333 -7.33301 32 -22 32 -44l-20 -88c0 -42.667 56 -64 168 -64l4 -4v-292l-8 -8h-32c-108 0 -184 60 -228 180h-4c-64 -75.333 -172 -130 -324 -164c-93.333 -16 -204 -26.667 -332 -32v4l-4 -4h-4l-724 4v4v300v5l48 -1l416 -4h216c258 0 462 24 612 72
c17.333 6 64 44.667 140 116c20 13.333 34.667 20 44 20z" />
    <glyph glyph-name="uFE97" unicode="&#x62a;" horiz-adv-x="354" arabic-form="initial" 
d="M377 435c0 -103.333 -24 -196 -72 -278c-60.667 -104 -147 -156 -259 -156h-74v305h62c132 0 198 19.333 198 58c0 34 -59.333 105.667 -178 215l143 220c8 12 17.333 13.667 28 5c54.667 -44.667 95.667 -110.334 123 -197.001c19.333 -61.333 29 -118.666 29 -171.999z
M302 1015c8 -7.33301 7.66699 -15.333 -1 -24l-116 -117c-8 -8.66699 -16.333 -8.66699 -25 0l-113 113l-112 -113c-8 -8 -16.333 -8 -25 0l-118 115c-9.33301 8.66699 -8.33301 18.667 3 30l108 110c10 10 20 10 30 0l110 -110l109 110c10 10 20 10 30 0z" />
    <glyph glyph-name="uFE98" unicode="&#x62a;" horiz-adv-x="556" arabic-form="medial" 
d="M584 1h-75c-113.333 0 -191 64.333 -233 193c-38 -128.667 -110.667 -193 -218 -193h-86v305h55c106.667 0 174.667 70 204 210c9.33301 44.667 26 67 50 67s38.667 -22.333 44 -67c16 -140 77.333 -210 184 -210h75v-305zM305 884c8 -8 7.66699 -16.333 -1 -25
l-116 -116c-8 -8 -16.333 -8 -25 0l-113 113l-112 -113c-8 -8 -16.333 -8 -25 0l-118 115c-9.33301 8.66699 -8.33301 18.667 3 30l108 110c10 10 20 10 30 0l110 -110l109 110c10 10 20 10 30 0z" />
    <glyph glyph-name="uFE9A" unicode="&#x62b;" horiz-adv-x="1746" arabic-form="final" 
d="M909 983c8 -7.33301 7.66797 -15.333 -0.999023 -24l-114 -115c-8.66699 -8.66699 -17.334 -8.66699 -26.001 0l-116 113c-9.33301 8.66699 -8.33301 18.667 3 30l107 109c9.33301 9.33301 19 9.33301 29 0zM1031 783c8 -7.33301 7.66699 -15.332 -1 -23.999l-116 -116
c-8 -8 -16.333 -8 -25 0l-113 112l-112 -112c-8 -8 -16.333 -8 -25 0l-118 114c-9.33301 9.33301 -8.33301 19.666 3 30.999l108 110c9.33301 10 19 10 29 0l110 -110l110 110c10 10 20 10 30 0zM1588 502.001c21.333 -7.33301 32 -22 32 -44l-20 -88
c0 -42.667 56 -64 168 -64l4 -4v-292l-8 -8h-32c-108 0 -184 60 -228 180h-4c-64 -75.333 -172 -130 -324 -164c-93.333 -16 -204 -26.667 -332 -32v4l-4 -4h-4l-724 4v4v300v5l48 -1l416 -4h216c258 0 462 24 612 72c17.333 6 64 44.667 140 116c20 13.333 34.667 20 44 20
z" />
    <glyph glyph-name="uFE9B" unicode="&#x62b;" horiz-adv-x="375" arabic-form="initial" 
d="M377 435c0 -103.333 -24 -196 -72 -278c-60.667 -104 -147 -156 -259 -156h-74v305h62c132 0 198 19.333 198 58c0 34 -59.333 105.667 -178 215l143 220c8 12 17.333 13.667 28 5c54.667 -44.667 95.667 -110.334 123 -197.001c19.333 -61.333 29 -118.666 29 -171.999z
M132 1144c8 -7.33301 7.66699 -15.333 -1 -24l-114 -115c-8 -8 -16.333 -8 -25 0l-117 113c-9.33301 8.66699 -8.33301 18.667 3 30l107 109c9.33301 9.33301 19 9.33301 29 0zM264 954c8 -7.33301 7.66797 -15.332 -0.999023 -23.999l-116 -116c-8 -8 -16.333 -8 -25 0
l-113 112l-111 -112c-8.66699 -8.66699 -17.334 -8.66699 -26.001 0l-118 114c-9.33301 9.33301 -8.33301 19.666 3 30.999l108 110c10 10 20 10 30 0l110 -110l109 110c10 10 20 10 30 0z" />
    <glyph glyph-name="uFE9C" unicode="&#x62b;" horiz-adv-x="556" arabic-form="medial" 
d="M584 1h-75c-113.333 0 -191 64.333 -233 193c-38 -128.667 -110.667 -193 -218 -193h-86v305h55c106.667 0 174.667 70 204 210c9.33301 44.667 26 67 50 67s38.667 -22.333 44 -67c16 -140 77.333 -210 184 -210h75v-305zM142 1026
c8 -7.33301 7.66699 -15.334 -1 -24.001l-114 -115c-8 -8 -16.333 -8 -25 0l-117 113c-8.66699 8.66699 -7.66699 18.334 3 29.001l107 109c9.33301 9.33301 19 9.33301 29 0zM264 835.999c8 -7.33301 7.66797 -15.333 -0.999023 -24l-116 -117
c-8 -8.66699 -16.333 -8.66699 -25 0l-113 113l-111 -113c-8.66699 -8.66699 -17.334 -8.66699 -26.001 0l-118 115c-9.33301 8.66699 -8.33301 18.667 3 30l108 110c10 10 20 10 30 0l110 -110l109 110c10 10 20 10 30 0z" />
    <glyph glyph-name="uFE9E" unicode="&#x62c;" horiz-adv-x="1296" arabic-form="final" 
d="M1329 1h-145.998c-142 0 -241 37.667 -297 113c-48 64.667 -72 171.334 -72 320.001c-146 -25.333 -266.333 -80.333 -361 -165c-106.667 -96 -160 -213.667 -160 -353c0 -134 61.667 -233.333 185 -298c96.667 -50.667 218.667 -76 366 -76c92.667 0 187 6.66699 283 20
c68.667 9.33301 103 -1.66699 103 -33c0 -29.333 -51.667 -58 -155 -86c-112.667 -30.667 -237.334 -46 -374.001 -46c-183.333 0 -337.666 32 -462.999 96c-161.333 82.667 -242 207 -242 373c0 162.667 70 301.667 210 417c119.333 98 276.666 171 471.999 219
c-174.667 24 -302.334 36 -383.001 36c-47.333 0 -85.333 -12.333 -114 -37l-58 -65c-14.667 -16 -30 -24 -46 -24c-21.333 0 -32 13.333 -32 40c0 8 1 15.667 3 23c15.333 57.333 42.666 115.666 81.999 174.999c64.667 97.333 138 146 220 146
c37.333 0 104.333 -10 201 -30c105.333 -22 183.333 -35 234 -39c215.333 -18 366 -27 452 -27c36.667 0 55 -7.33301 55 -22s-26 -64.667 -78 -150c-31.333 -51.333 -56.666 -77 -75.999 -77c-105.333 1.33301 -181 -0.666992 -227 -6c0 -92.667 64.667 -139 194 -139h224
v-305zM840.002 -48c8.66699 -8 8.33203 -16.667 -1.00098 -26l-125 -124c-8.66699 -8.66699 -17.667 -8.66699 -27 0l-126 123c-10 9.33301 -9 20 3 32l116 118c10.667 10.667 21.334 10.667 32.001 0z" />
    <glyph glyph-name="uFE9F" unicode="&#x62c;" horiz-adv-x="1232" arabic-form="initial" 
d="M1277 516l-85.001 -157.002c-11.333 -20.667 -25.333 -32 -42 -34c3.33301 0.666992 -29.334 1 -98.001 1c-52.667 0 -129.667 -28 -231 -84c-158 -87.333 -257 -139.666 -297 -156.999c-129.333 -56 -255.666 -84 -378.999 -84h-173v305h162
c121.333 0 225.333 10 312 30c54.667 12.667 143.334 42 266.001 88c-42 12 -123.333 41.667 -244 89c-93.333 36.667 -154.666 55 -183.999 55c-40 0 -70.667 -9 -92 -27l-51 -55c-14 -15.333 -30 -23 -48 -23c-22.667 0 -34 13.333 -34 40c0 8.66699 1.66699 18 5 28
c16 48.667 47.333 102 94 160c65.333 81.333 132 122 200 122c33.333 0 151.666 -37 354.999 -111c212 -76.667 389 -119 531 -127c30 -1.33301 45 -9.66602 45 -24.999c0 -8 -4 -19.333 -12 -34zM814.999 -269.002c8.66699 -8 8.33301 -16.667 -1 -26l-125 -125
c-8.66699 -8.66699 -17.667 -8.66699 -27 0l-127 123c-10 10 -9 21 3 33l116 118c10 10.667 20.667 10.667 32 0z" />
    <glyph glyph-name="uFEA0" unicode="&#x62c;" horiz-adv-x="1336" arabic-form="medial" 
d="M1364 1h-182.003c-143.333 0 -237.666 39.667 -282.999 119c-27.333 47.333 -41 131.333 -41 252c-118 -105.333 -211.333 -180 -280 -224c-153.333 -98 -300.666 -147 -441.999 -147h-164v305h125c120 0 239.333 20.333 358 61c68 23.333 163 65.333 285 126
c-266 73.333 -426.667 110 -482 110c-30.667 0 -57.667 -9 -81 -27c-5.33301 -4 -21.333 -21 -48 -51c-17.333 -19.333 -34 -29 -50 -29c-21.333 0 -32 13.333 -32 40c0 9.33301 2 20 6 32c16.667 50 47 104 91 162c66 86.667 133.333 130 202 130
c47.333 0 113.333 -12.667 198 -38c119.333 -35.333 202.333 -58 249 -68c159.333 -32.667 307 -56.334 443 -71.001c32.667 -3.33301 49 -11.666 49 -24.999c0 -8 -5 -20.667 -15 -38l-106 -184c-57.333 4.66699 -99.666 7 -126.999 7c-57.333 0 -86 -15.333 -86 -46
c0 -60.667 75.333 -91 226 -91h187v-305zM814.997 -199c8.66699 -8 8.33301 -16.667 -1 -26l-125 -125c-8.66699 -8.66699 -17.667 -8.66699 -27 0l-127 123c-10 10 -9 21 3 33l116 118c10 10.667 20.667 10.667 32 0z" />
    <glyph glyph-name="uFEA2" unicode="&#x62d;" horiz-adv-x="1300" arabic-form="final" 
d="M1327 1h-146c-142 0 -241 37.667 -297 113c-48 64.667 -72 171.334 -72 320.001c-146 -25.333 -266.333 -80.333 -361 -165c-106.667 -96 -160 -213.667 -160 -353c0 -134 61.667 -233.333 185 -298c96.667 -50.667 218.667 -76 366 -76c92.667 0 187 6.66699 283 20
c68 9.33301 102 -1.66699 102 -33c0 -29.333 -51.333 -58 -154 -86c-112 -30.667 -236.667 -46 -374 -46c-183.333 0 -337.666 32 -462.999 96c-161.333 82.667 -242 207 -242 373c0 168.667 74.667 311.667 224 429c118 92 270.667 161 458 207
c-175.333 24 -303 36 -383 36c-48 0 -86 -12.333 -114 -37c-52 -59.333 -87 -89 -105 -89c-20.667 0 -31 13.333 -31 40c0 8 1 15.667 3 23c15.333 57.333 42.666 115.666 81.999 174.999c64.667 97.333 138 146 220 146c36.667 0 103.667 -10 201 -30
c106 -22 183.667 -35 233 -39c214 -18 365 -27 453 -27c36.667 0 55 -7.33301 55 -22c0 -10 -8 -28.667 -24 -56l-55 -94c-31.333 -51.333 -56.333 -77 -75 -77c-106 1.33301 -181.667 -0.666992 -227 -6c0 -92.667 64.667 -139 194 -139h224v-305z" />
    <glyph glyph-name="uFEA3" unicode="&#x62d;" horiz-adv-x="1243" arabic-form="initial" 
d="M1277 516l-85.001 -157.002c-11.333 -20.667 -25.333 -32 -42 -34c3.33301 0.666992 -29.334 1 -98.001 1c-52.667 0 -129.667 -28 -231 -84c-158 -87.333 -257 -139.666 -297 -156.999c-129.333 -56 -255.666 -84 -378.999 -84h-173v305h162
c121.333 0 225.333 10 312 30c54.667 12.667 143.334 42 266.001 88c-42 12 -123.333 41.667 -244 89c-93.333 36.667 -154.666 55 -183.999 55c-40 0 -70.667 -9 -92 -27l-51 -55c-14 -15.333 -30 -23 -48 -23c-22.667 0 -34 13.333 -34 40c0 8.66699 1.66699 18 5 28
c16 48.667 47.333 102 94 160c65.333 81.333 132 122 200 122c33.333 0 151.666 -37 354.999 -111c212 -76.667 389 -119 531 -127c30 -1.33301 45 -9.66602 45 -24.999c0 -8 -4 -19.333 -12 -34z" />
    <glyph glyph-name="uFEA4" unicode="&#x62d;" horiz-adv-x="1336" arabic-form="medial" 
d="M1364 1h-182.003c-143.333 0 -237.666 39.667 -282.999 119c-27.333 47.333 -41 131.333 -41 252c-118 -105.333 -211.333 -180 -280 -224c-153.333 -98 -300.666 -147 -441.999 -147h-164v305h125c120 0 239.333 20.333 358 61c68 23.333 163 65.333 285 126
c-266 73.333 -426.667 110 -482 110c-30.667 0 -57.667 -9 -81 -27c-5.33301 -4 -21.333 -21 -48 -51c-17.333 -19.333 -34 -29 -50 -29c-21.333 0 -32 13.333 -32 40c0 9.33301 2 20 6 32c16.667 50 47 104 91 162c66 86.667 133.333 130 202 130
c47.333 0 113.333 -12.667 198 -38c119.333 -35.333 202.333 -58 249 -68c159.333 -32.667 307 -56.334 443 -71.001c32.667 -3.33301 49 -11.666 49 -24.999c0 -8 -5 -20.667 -15 -38l-106 -184c-57.333 4.66699 -99.666 7 -126.999 7c-57.333 0 -86 -15.333 -86 -46
c0 -60.667 75.333 -91 226 -91h187v-305z" />
    </font>
</defs>
</svg>
