<?xml version="1.0" encoding="utf-8"?>
<!-- Generator: Adobe Illustrator 20.0.0, SVG Export Plug-In . SVG Version: 6.00 Build 0)  -->
<svg version="1.1" id="Layer_1" xmlns="http://www.w3.org/2000/svg" xmlns:xlink="http://www.w3.org/1999/xlink" x="0px" y="0px"
	 viewBox="0 0 2500 2500" style="enable-background:new 0 0 2500 2500;" xml:space="preserve">
<style type="text/css">
	.st0{fill:#FFFFFF;}
</style>
<path d="M1341.6,174.3c15.7,0,31.4,0,47,0c1.7,0.3,3.4,0.7,5.2,0.7c5.6,0.2,11.2,0.2,16.8,0.5c10.4,0.7,20.7,1.5,31.1,2.5
	c9.9,0.9,19.7,1.9,29.5,3.2c11.4,1.6,22.7,3.5,34.1,5.4c22.2,3.8,44.1,8.8,65.9,14.8c61.6,17,120,41.6,175.4,73.5
	c58.4,33.6,111.8,73.7,159.6,121.2c68.4,67.9,122,146.1,161.6,233.9c20.5,45.4,36.1,92.6,46.9,141.2c3.5,15.9,6.6,31.9,9.1,48
	c1.6,9.9,2.8,19.9,4,29.9c1,8.4,1.8,16.9,2.5,25.3c0.6,6.5,1,13.1,1.3,19.6c0.3,5.9,0.3,11.8,0.4,17.8c0.1,1.7,0.4,3.4,0.6,5.2
	c0,17,0,33.9,0,50.9c-0.2,1.7-0.5,3.4-0.6,5.1c-0.5,9.7-0.3,19.5-1.1,29.2c-1.1,14.4-2.5,28.7-4.3,43c-2.4,18.4-5.4,36.7-9.2,54.9
	c-7.5,36.6-17.6,72.3-30.5,107.3c-21.3,58.1-49.7,112.5-84.1,163.9c-38.4,57.2-83.5,108.4-135.8,153.3
	c-39.4,33.9-81.9,63.4-127.2,88.9c-51.5,28.9-105.5,51.8-162.3,67.9c-22.1,6.3-44.5,11.6-67.1,15.8c-10.5,2-21.1,3.5-31.7,5.1
	c-8.1,1.2-16.2,2.2-24.2,3.1c-8.3,0.9-16.5,1.9-24.8,2.5c-12.6,0.9-25.2,1.5-37.8,2.3c-1.1,0.1-2.1,0.5-3.2,0.7c-15.7,0-31.4,0-47,0
	c-1.7-0.3-3.4-0.7-5.2-0.8c-8.6-0.5-17.3-0.8-25.9-1.5c-9.4-0.7-18.8-1.6-28.2-2.5c-9.4-1-18.8-1.9-28.1-3.3
	c-12.6-1.9-25.2-4-37.8-6.3c-25.8-4.7-51.2-11-76.2-18.7c-105.1-32.2-198.8-85.1-281.8-157c-43.8-38-82.5-80.7-116.4-127.8
	c-50.8-70.7-89.5-147.3-114.3-230.9c-8.1-27.3-14.6-55-19.5-83c-3-17-5.4-34.1-7.1-51.3c-1.7-16.5-3.1-33.1-3.7-49.7
	c-0.1-2.9-0.2-5.8-0.4-8.6c-0.2-2.2-0.2-4.5-1.4-6.5c0-14.1,0-28.2,0-42.2c1.6-2.2,1.4-4.9,1.5-7.4c0.5-8.1,0.7-16.3,1.3-24.4
	c0.9-12.6,1.9-25.2,3.2-37.7c1.6-14.8,3.8-29.5,6.3-44.1c4-23,9-45.8,15.1-68.3c17.3-64.1,43-124.7,76.4-182
	c45.9-78.7,103.3-147.7,173.6-205.7c66.8-55.2,140.7-98.6,221.8-129.2c34.4-13,69.6-23.4,105.6-30.8c12.8-2.6,25.7-5,38.6-7.3
	c7.5-1.3,15.2-2.2,22.8-3.2c6-0.8,12-1.5,18.1-2.1c8.9-0.9,17.8-1.9,26.7-2.5c9.9-0.7,19.8-0.9,29.7-1.4
	C1338.2,174.9,1339.9,174.5,1341.6,174.3z M1493.2,1230.1c-1-2.1-0.5-4.4-0.5-6.6c0-166.9,0-333.7,0-500.6c0-2.9,0-5.8-0.2-8.6
	c-1-12.6-10.1-23.3-22.3-26.5c-3.8-1-7.6-1-11.4-1c-105.3,0-210.5,0-315.8,0c-1.6,0-3.2,0-4.8,0.1c-13.4,0.5-24.7,9.8-28.1,22.8
	c-0.8,3.3-1,6.6-1,10c0,52.6,0,105.3,0,157.9c0,1.4,0,2.9,0.1,4.3c1,15.9,13.2,26.4,25.3,27.9c3,0.4,6,0.7,9.1,0.7
	c29.3,0.1,58.6,0,87.8,0c1.7,0,3.4,0.1,5.3,0.2c0.5,2.3,0.3,4.4,0.3,6.4c0,102.2,0,204.4,0,306.7c0,1.3,0.1,2.6,0,3.8
	c-0.1,0.9-0.3,1.8-0.5,2.9c-2.1,0-4,0.1-5.9,0.1c-28.8,0-57.6,0-86.4,0c-2.7,0-5.4,0.2-8.1,0.4c-12,1-22.5,10-25.8,21.9
	c-0.9,3.3-1.1,6.6-1.1,10c0,53.1,0,106.2,0,159.3c0,1.3,0,2.6,0.1,3.8c0.8,12.6,9.6,23.5,21.8,27c4.1,1.2,8.2,1.2,12.4,1.2
	c147.7,0,295.3,0,443,0c2.2,0,4.5-0.1,6.7-0.2c13-0.8,24.7-10.9,27-24.5c0.5-2.8,0.7-5.7,0.7-8.6c0-52.3,0-104.6,0-156.9
	c0-2.9-0.3-5.8-0.7-8.6c-2.3-13.2-13.5-23.2-26.1-24.4c-2.7-0.2-5.4-0.4-8.1-0.4c-29,0-57.9,0-86.9,0
	C1497.1,1230.7,1495.1,1231.1,1493.2,1230.1z M1364.6,558.4c31.2,0,62.4,0,93.6,0c1.8,0,3.5,0,5.3,0c13.5-0.5,24.8-9.6,28.2-22.7
	c1-3.9,1.1-7.9,1.1-11.9c0-51.5,0-103,0-154.5c0-2.2,0-4.5-0.2-6.7c-0.9-12.2-9-22.4-20.7-26.2c-4.2-1.4-8.4-1.7-12.8-1.7
	c-62.7,0-125.4,0-188.1,0c-1.4,0-2.9,0-4.3,0c-13.4,0.7-24.4,9.1-28.1,21.6c-1.1,3.5-1.5,7.2-1.5,10.9c0,52.9,0,105.9,0,158.8
	c0,2.9,0.2,5.8,0.9,8.6c2.9,12.1,10.5,19.8,22.6,22.9c3.1,0.8,6.3,0.9,9.5,0.9C1301.6,558.4,1333.1,558.4,1364.6,558.4z"/>
<path class="st0" d="M595.7,963.4c1.2,2,1.2,4.3,1.4,6.5c0.2,2.9,0.3,5.7,0.4,8.6c0.6,16.6,2,33.2,3.7,49.7
	c1.8,17.2,4.2,34.3,7.1,51.3c4.9,28,11.4,55.7,19.5,83c24.8,83.6,63.5,160.2,114.3,230.9c33.9,47.1,72.5,89.8,116.4,127.8
	c83,71.9,176.7,124.8,281.8,157c25,7.7,50.4,14,76.2,18.7c12.6,2.3,25.2,4.4,37.8,6.3c9.3,1.4,18.7,2.3,28.1,3.3
	c9.4,1,18.8,1.8,28.2,2.5c8.6,0.6,17.2,0.9,25.9,1.5c1.7,0.1,3.4,0.5,5.2,0.8c-248.6,0-497.3,0-745.9,0
	C595.7,1462,595.7,1212.7,595.7,963.4z"/>
<path class="st0" d="M1341.6,174.3c-1.7,0.3-3.4,0.7-5.2,0.7c-9.9,0.5-19.8,0.7-29.7,1.4c-8.9,0.6-17.8,1.6-26.7,2.5
	c-6,0.6-12.1,1.3-18.1,2.1c-7.6,1-15.2,1.9-22.8,3.2c-12.9,2.3-25.8,4.7-38.6,7.3c-36,7.4-71.2,17.8-105.6,30.8
	c-81.2,30.6-155,74-221.8,129.2c-70.3,58.1-127.7,127.1-173.6,205.7c-33.4,57.3-59.1,117.9-76.4,182c-6.1,22.5-11.1,45.3-15.1,68.3
	c-2.5,14.7-4.7,29.4-6.3,44.1c-1.4,12.6-2.3,25.2-3.2,37.7c-0.6,8.1-0.8,16.3-1.3,24.4c-0.2,2.5,0,5.1-1.5,7.4
	c0-249,0-497.9,0-746.9C844.4,174.3,1093,174.3,1341.6,174.3z"/>
<path class="st0" d="M1388.7,1711.3c1.1-0.2,2.1-0.6,3.2-0.7c12.6-0.8,25.2-1.4,37.8-2.3c8.3-0.6,16.6-1.5,24.8-2.5
	c8.1-0.9,16.2-1.9,24.2-3.1c10.6-1.6,21.2-3.1,31.7-5.1c22.6-4.3,45-9.5,67.1-15.8c56.8-16.2,110.8-39,162.3-67.9
	c45.3-25.5,87.8-55,127.2-88.9c52.2-44.9,97.4-96.1,135.8-153.3c34.4-51.3,62.8-105.8,84.1-163.9c12.9-35,23-70.8,30.5-107.3
	c3.7-18.2,6.8-36.5,9.2-54.9c1.8-14.3,3.2-28.6,4.3-43c0.8-9.7,0.6-19.5,1.1-29.2c0.1-1.7,0.4-3.4,0.6-5.1c0,247.7,0,495.4,0,743
	C1884.7,1711.3,1636.7,1711.3,1388.7,1711.3z"/>
<path class="st0" d="M2132.7,917.3c-0.2-1.7-0.6-3.4-0.6-5.2c-0.2-5.9-0.2-11.8-0.4-17.8c-0.3-6.5-0.7-13.1-1.3-19.6
	c-0.7-8.4-1.5-16.9-2.5-25.3c-1.2-10-2.5-20-4-29.9c-2.5-16.1-5.6-32.1-9.1-48c-10.8-48.7-26.4-95.8-46.9-141.2
	c-39.6-87.8-93.2-166-161.6-233.9c-47.8-47.5-101.3-87.6-159.6-121.2c-55.4-31.9-113.8-56.5-175.4-73.5c-21.7-6-43.6-11.1-65.9-14.8
	c-11.3-1.9-22.7-3.9-34.1-5.4c-9.8-1.4-19.7-2.3-29.5-3.2c-10.3-1-20.7-1.8-31.1-2.5c-5.6-0.4-11.2-0.3-16.8-0.5
	c-1.7-0.1-3.4-0.5-5.2-0.7c248,0,496,0,744,0C2132.7,422,2132.7,669.7,2132.7,917.3z"/>
<path class="st0" d="M1493.2,1230.1c1.9,1,3.8,0.6,5.7,0.6c29,0,57.9,0,86.9,0c2.7,0,5.4,0.2,8.1,0.4c12.6,1.2,23.9,11.1,26.1,24.4
	c0.5,2.8,0.7,5.7,0.7,8.6c0,52.3,0,104.6,0,156.9c0,2.9-0.3,5.8-0.7,8.6c-2.3,13.7-14,23.7-27,24.5c-2.2,0.1-4.5,0.2-6.7,0.2
	c-147.7,0-295.3,0-443,0c-4.2,0-8.3-0.1-12.4-1.2c-12.2-3.5-21-14.3-21.8-27c-0.1-1.3-0.1-2.6-0.1-3.8c0-53.1,0-106.2,0-159.3
	c0-3.4,0.2-6.7,1.1-10c3.2-11.9,13.8-20.9,25.8-21.9c2.7-0.2,5.4-0.4,8.1-0.4c28.8,0,57.6,0,86.4,0c1.9,0,3.8-0.1,5.9-0.1
	c0.2-1.1,0.5-2,0.5-2.9c0.1-1.3,0-2.6,0-3.8c0-102.2,0-204.4,0-306.7c0-2,0.2-4.1-0.3-6.4c-1.9-0.1-3.6-0.2-5.3-0.2
	c-29.3,0-58.6,0-87.8,0c-3,0-6.1-0.3-9.1-0.7c-12.1-1.6-24.2-12-25.3-27.9c-0.1-1.4-0.1-2.9-0.1-4.3c0-52.6,0-105.3,0-157.9
	c0-3.4,0.1-6.7,1-10c3.3-13.1,14.6-22.3,28.1-22.8c1.6-0.1,3.2-0.1,4.8-0.1c105.3,0,210.5,0,315.8,0c3.8,0,7.6,0,11.4,1
	c12.2,3.2,21.3,13.9,22.3,26.5c0.2,2.9,0.2,5.8,0.2,8.6c0,166.9,0,333.7,0,500.6C1492.7,1225.7,1492.3,1228,1493.2,1230.1z"/>
<path class="st0" d="M1364.6,558.4c-31.5,0-63,0-94.5,0c-3.2,0-6.4-0.1-9.5-0.9c-12.1-3.2-19.7-10.8-22.6-22.9
	c-0.7-2.8-0.9-5.7-0.9-8.6c-0.1-52.9,0-105.9,0-158.8c0-3.7,0.4-7.3,1.5-10.9c3.8-12.5,14.8-20.9,28.1-21.6c1.4-0.1,2.9,0,4.3,0
	c62.7,0,125.4,0,188.1,0c4.3,0,8.6,0.4,12.8,1.7c11.7,3.8,19.8,14,20.7,26.2c0.2,2.2,0.2,4.5,0.2,6.7c0,51.5,0,103,0,154.5
	c0,4,0,8-1.1,11.9c-3.5,13-14.7,22.2-28.2,22.7c-1.8,0.1-3.5,0-5.3,0C1427,558.4,1395.8,558.4,1364.6,558.4z"/>
</svg>
