<?xml version="1.0" encoding="utf-8"?>
<!-- Generator: Adobe Illustrator 20.0.0, SVG Export Plug-In . SVG Version: 6.00 Build 0)  -->
<svg version="1.1" id="Layer_1" xmlns="http://www.w3.org/2000/svg" xmlns:xlink="http://www.w3.org/1999/xlink" x="0px" y="0px"
	 viewBox="0 0 612 792" style="enable-background:new 0 0 612 792;" xml:space="preserve">
<style type="text/css">
	.st0{fill:#FFFFFF;}
</style>
<path class="st0" d="M616,662c-206,0-412,0-618,0c0-176.7,0-353.3,0-530c206,0,412,0,618,0C616,308.7,616,485.3,616,662z M242.5,658
	C242.5,658,242.5,658,242.5,658c48.2,0,96.3,0,144.5-0.1c18.1,0,34.9-5,49.9-15.1c26.7-17.9,43.6-42.7,44.8-75.2
	c1.4-38.6,0.4-77.3,0.4-116c0-6.5-4.1-10.6-10.6-10.7c-6.3-0.2-12.7-0.1-19-0.1c-10,0-13.4,3.4-13.4,13.5c0,34.5,0,69,0,103.5
	c0,12.4-2.8,24.1-10.4,34.2c-12,15.9-28,23.1-47.9,23c-40.7-0.3-81.3-0.1-122-0.1c-52,0-104,0-156,0c-18.1,0-32.8-6.8-44.4-20.9
	C49.1,583,46.2,570,46.2,556.1c0-87.7,0-175.3,0-263c0-7,0.5-14,0.7-21c0.5-21.1,18.8-42.1,38.1-47c6.8-1.7,14.1-2.5,21.2-2.5
	c76.2-0.2,152.3-0.1,228.5-0.1c2,0,4,0.1,6-0.2c7.2-0.8,10.3-4.1,10.5-11.3c0.2-5.8-0.2-11.7,0.1-17.5c0.7-11.9-5.8-14.4-14.3-14.4
	c-77.7,0-155.3-0.2-233,0.2c-10.7,0.1-21.7,1.6-32,4.5C38,193.5,3.1,227.7,3,277.8c-0.1,94-0.1,188,0,282c0,19,4.5,37,15.3,52.9
	c19.4,28.5,45.9,45,81,45.2C147.1,658.3,194.8,658,242.5,658z M515.8,286.4c1.8,1.8,3.1,2.9,4.2,4c18.3,18.3,36.6,36.5,54.8,54.8
	c4.4,4.4,9.3,7.6,15.7,7.8c12.7,0.4,22.4-9.9,22.5-24.1c0.1-35.3,0-70.6,0-106c0-21,0.1-42,0-63c-0.1-14.1-9.3-23.9-22.6-23.9
	c-57.5-0.1-115,0-172.5,0c-2.6,0-5.4,0.4-7.8,1.3c-15.4,5.8-19.1,23.7-7.3,35.7c18,18.3,36.2,36.3,54.4,54.5c5,5,5,5,0.1,10
	c-71.6,71.6-143.3,143.3-214.9,214.9c-7.6,7.6-7.5,12.3,0.1,19.9c11.1,11,22.2,22.1,33.3,33.2c8.5,8.6,12.7,8.7,21.2,0.2
	c59.1-59.1,118.3-118.3,177.4-177.4C488,314.4,501.6,300.6,515.8,286.4z"/>
<path d="M242.5,658c-47.7,0-95.3,0.2-143-0.1c-35.1-0.2-61.6-16.7-81-45.2C7.6,596.8,3.1,578.8,3.1,559.8c-0.2-94-0.1-188,0-282
	c0-50.1,35-84.3,68.9-93.9c10.3-2.9,21.3-4.5,32-4.5c77.7-0.4,155.3-0.2,233-0.2c8.5,0,15,2.5,14.3,14.4c-0.3,5.8,0,11.7-0.1,17.5
	c-0.2,7.2-3.3,10.5-10.5,11.3c-2,0.2-4,0.2-6,0.2c-76.2,0-152.3-0.1-228.5,0.1c-7.1,0-14.3,0.8-21.2,2.5
	c-19.3,4.8-37.6,25.9-38.1,47c-0.2,7-0.7,14-0.7,21c0,87.7,0,175.3,0,263c0,14,2.8,26.9,12.1,38.1c11.6,14.1,26.3,20.9,44.4,20.9
	c52,0,104,0,156,0c40.7,0,81.3-0.2,122,0.1c19.9,0.1,35.9-7,47.9-23C436.2,582,439,570.4,439,558c0-34.5,0-69,0-103.5
	c0-10.1,3.3-13.5,13.4-13.5c6.3,0,12.7-0.1,19,0.1c6.5,0.2,10.6,4.2,10.6,10.7c0,38.7,1.1,77.4-0.4,116
	c-1.2,32.4-18.1,57.2-44.8,75.2c-15,10.1-31.8,15.1-49.9,15.1C338.8,658.1,290.6,658,242.5,658C242.5,658,242.5,658,242.5,658z"/>
<path d="M515.8,286.4c-14.1,14.2-27.8,28.1-41.6,41.8c-59.1,59.2-118.3,118.3-177.4,177.4c-8.5,8.5-12.6,8.4-21.2-0.2
	c-11-11.1-22.1-22.2-33.3-33.2c-7.6-7.5-7.7-12.2-0.1-19.9c71.6-71.6,143.3-143.3,214.9-214.9c5-5,5-5-0.1-10
	c-18.1-18.1-36.4-36.2-54.4-54.5c-11.9-12-8.2-30,7.3-35.7c2.4-0.9,5.2-1.3,7.8-1.3c57.5-0.1,115-0.1,172.5,0
	c13.3,0,22.6,9.8,22.6,23.9c0.1,21,0,42,0,63c0,35.3,0,70.6,0,106c0,14.2-9.7,24.5-22.5,24.1c-6.4-0.2-11.3-3.4-15.7-7.8
	c-18.2-18.3-36.5-36.5-54.8-54.8C518.8,289.3,517.6,288.1,515.8,286.4z"/>
</svg>
